<svg xmlns="http://www.w3.org/2000/svg" width="1000" height="488" viewBox="0 0 1000 488"><rect width="100%" height="100%" fill="#0d1117"/><text x="20" y="28" fill="#c9d1d9" font-family="ui-sans-serif,system-ui,sans-serif" font-size="13" font-weight="600">Bytes — allocating (to_string) — lower is better</text><line x1="330" y1="50" x2="330" y2="194" stroke="#30363d" stroke-width="1"/><line x1="330" y1="194" x2="860" y2="194" stroke="#30363d" stroke-width="1"/><line x1="330" y1="194" x2="330" y2="198" stroke="#30363d" stroke-width="1"/><text x="330" y="210" fill="#8b949e" font-family="ui-monospace,monospace" font-size="10" text-anchor="start">0</text><line x1="463" y1="50" x2="463" y2="194" stroke="#21262d" stroke-width="1" stroke-dasharray="2 3"/><line x1="463" y1="194" x2="463" y2="198" stroke="#30363d" stroke-width="1"/><text x="463" y="210" fill="#8b949e" font-family="ui-monospace,monospace" font-size="10" text-anchor="middle">150 ns</text><line x1="595" y1="50" x2="595" y2="194" stroke="#21262d" stroke-width="1" stroke-dasharray="2 3"/><line x1="595" y1="194" x2="595" y2="198" stroke="#30363d" stroke-width="1"/><text x="595" y="210" fill="#8b949e" font-family="ui-monospace,monospace" font-size="10" text-anchor="middle">300 ns</text><line x1="728" y1="50" x2="728" y2="194" stroke="#21262d" stroke-width="1" stroke-dasharray="2 3"/><line x1="728" y1="194" x2="728" y2="198" stroke="#30363d" stroke-width="1"/><text x="728" y="210" fill="#8b949e" font-family="ui-monospace,monospace" font-size="10" text-anchor="middle">450 ns</text><line x1="860" y1="50" x2="860" y2="194" stroke="#21262d" stroke-width="1" stroke-dasharray="2 3"/><line x1="860" y1="194" x2="860" y2="198" stroke="#30363d" stroke-width="1"/><text x="860" y="210" fill="#8b949e" font-family="ui-monospace,monospace" font-size="10" text-anchor="end">600 ns</text><rect x="330" y="57" width="39" height="22" fill="#388bfd" rx="3"/><text x="322" y="72" fill="#c9d1d9" font-family="ui-sans-serif,system-ui,sans-serif" font-size="11" text-anchor="end">prettier-bytes  u64 only, fixed 2dp, no negatives</text><text x="868" y="72" fill="#c9d1d9" font-family="ui-monospace,monospace" font-size="11">45 ns</text><rect x="330" y="93" width="67" height="22" fill="#a371f7" rx="3"/><text x="322" y="108" fill="#c9d1d9" font-family="ui-sans-serif,system-ui,sans-serif" font-size="11" text-anchor="end">humfmt  i8-u128, any precision</text><text x="868" y="108" fill="#c9d1d9" font-family="ui-monospace,monospace" font-size="11">76 ns</text><rect x="330" y="129" width="112" height="22" fill="#388bfd" rx="3"/><text x="322" y="144" fill="#c9d1d9" font-family="ui-sans-serif,system-ui,sans-serif" font-size="11" text-anchor="end">bytesize  u64 only</text><text x="868" y="144" fill="#c9d1d9" font-family="ui-monospace,monospace" font-size="11">127 ns</text><rect x="330" y="165" width="530" height="22" fill="#388bfd" rx="3"/><text x="322" y="180" fill="#c9d1d9" font-family="ui-sans-serif,system-ui,sans-serif" font-size="11" text-anchor="end">byte-unit  u64/u128</text><text x="868" y="180" fill="#c9d1d9" font-family="ui-monospace,monospace" font-size="11">600 ns</text><line x1="20" y1="244" x2="980" y2="244" stroke="#30363d" stroke-width="1" stroke-dasharray="5 4"/><text x="20" y="286" fill="#c9d1d9" font-family="ui-sans-serif,system-ui,sans-serif" font-size="13" font-weight="600">Bytes — reused buffer (write!) — lower is better</text><line x1="330" y1="308" x2="330" y2="452" stroke="#30363d" stroke-width="1"/><line x1="330" y1="452" x2="860" y2="452" stroke="#30363d" stroke-width="1"/><line x1="330" y1="452" x2="330" y2="456" stroke="#30363d" stroke-width="1"/><text x="330" y="468" fill="#8b949e" font-family="ui-monospace,monospace" font-size="10" text-anchor="start">0</text><line x1="463" y1="308" x2="463" y2="452" stroke="#21262d" stroke-width="1" stroke-dasharray="2 3"/><line x1="463" y1="452" x2="463" y2="456" stroke="#30363d" stroke-width="1"/><text x="463" y="468" fill="#8b949e" font-family="ui-monospace,monospace" font-size="10" text-anchor="middle">144 ns</text><line x1="595" y1="308" x2="595" y2="452" stroke="#21262d" stroke-width="1" stroke-dasharray="2 3"/><line x1="595" y1="452" x2="595" y2="456" stroke="#30363d" stroke-width="1"/><text x="595" y="468" fill="#8b949e" font-family="ui-monospace,monospace" font-size="10" text-anchor="middle">288 ns</text><line x1="728" y1="308" x2="728" y2="452" stroke="#21262d" stroke-width="1" stroke-dasharray="2 3"/><line x1="728" y1="452" x2="728" y2="456" stroke="#30363d" stroke-width="1"/><text x="728" y="468" fill="#8b949e" font-family="ui-monospace,monospace" font-size="10" text-anchor="middle">432 ns</text><line x1="860" y1="308" x2="860" y2="452" stroke="#21262d" stroke-width="1" stroke-dasharray="2 3"/><line x1="860" y1="452" x2="860" y2="456" stroke="#30363d" stroke-width="1"/><text x="860" y="468" fill="#8b949e" font-family="ui-monospace,monospace" font-size="10" text-anchor="end">576 ns</text><rect x="330" y="315" width="21" height="22" fill="#388bfd" rx="3"/><text x="322" y="330" fill="#c9d1d9" font-family="ui-sans-serif,system-ui,sans-serif" font-size="11" text-anchor="end">prettier-bytes  u64 only, fixed 2dp, no negatives</text><text x="868" y="330" fill="#c9d1d9" font-family="ui-monospace,monospace" font-size="11">23 ns</text><rect x="330" y="351" width="58" height="22" fill="#a371f7" rx="3"/><text x="322" y="366" fill="#c9d1d9" font-family="ui-sans-serif,system-ui,sans-serif" font-size="11" text-anchor="end">humfmt  i8-u128, any precision</text><text x="868" y="366" fill="#c9d1d9" font-family="ui-monospace,monospace" font-size="11">63 ns</text><rect x="330" y="387" width="106" height="22" fill="#388bfd" rx="3"/><text x="322" y="402" fill="#c9d1d9" font-family="ui-sans-serif,system-ui,sans-serif" font-size="11" text-anchor="end">bytesize  u64 only</text><text x="868" y="402" fill="#c9d1d9" font-family="ui-monospace,monospace" font-size="11">115 ns</text><rect x="330" y="423" width="530" height="22" fill="#388bfd" rx="3"/><text x="322" y="438" fill="#c9d1d9" font-family="ui-sans-serif,system-ui,sans-serif" font-size="11" text-anchor="end">byte-unit  u64/u128</text><text x="868" y="438" fill="#c9d1d9" font-family="ui-monospace,monospace" font-size="11">576 ns</text></svg>