<svg xmlns="http://www.w3.org/2000/svg" width="1000" height="860" viewBox="0 0 1000 860"><rect width="100%" height="100%" fill="#0d1117"/><text x="20" y="28" fill="#c9d1d9" font-family="ui-sans-serif,system-ui,sans-serif" font-size="13" font-weight="600">Bytes — allocating (to_string) — lower is better</text><line x1="330" y1="50" x2="330" y2="194" stroke="#30363d" stroke-width="1"/><line x1="330" y1="194" x2="860" y2="194" stroke="#30363d" stroke-width="1"/><line x1="330" y1="194" x2="330" y2="198" stroke="#30363d" stroke-width="1"/><text x="330" y="210" fill="#8b949e" font-family="ui-monospace,monospace" font-size="10" text-anchor="start">0</text><line x1="463" y1="50" x2="463" y2="194" stroke="#21262d" stroke-width="1" stroke-dasharray="2 3"/><line x1="463" y1="194" x2="463" y2="198" stroke="#30363d" stroke-width="1"/><text x="463" y="210" fill="#8b949e" font-family="ui-monospace,monospace" font-size="10" text-anchor="middle">277 ns</text><line x1="595" y1="50" x2="595" y2="194" stroke="#21262d" stroke-width="1" stroke-dasharray="2 3"/><line x1="595" y1="194" x2="595" y2="198" stroke="#30363d" stroke-width="1"/><text x="595" y="210" fill="#8b949e" font-family="ui-monospace,monospace" font-size="10" text-anchor="middle">555 ns</text><line x1="728" y1="50" x2="728" y2="194" stroke="#21262d" stroke-width="1" stroke-dasharray="2 3"/><line x1="728" y1="194" x2="728" y2="198" stroke="#30363d" stroke-width="1"/><text x="728" y="210" fill="#8b949e" font-family="ui-monospace,monospace" font-size="10" text-anchor="middle">832 ns</text><line x1="860" y1="50" x2="860" y2="194" stroke="#21262d" stroke-width="1" stroke-dasharray="2 3"/><line x1="860" y1="194" x2="860" y2="198" stroke="#30363d" stroke-width="1"/><text x="860" y="210" fill="#8b949e" font-family="ui-monospace,monospace" font-size="10" text-anchor="end">1.11 us</text><rect x="330" y="57" width="66" height="22" fill="#388bfd" rx="3"/><text x="322" y="72" fill="#c9d1d9" font-family="ui-sans-serif,system-ui,sans-serif" font-size="11" text-anchor="end">prettier-bytes  u64 only, fixed 2dp, no negatives</text><text x="868" y="72" fill="#c9d1d9" font-family="ui-monospace,monospace" font-size="11">137 ns</text><rect x="330" y="93" width="110" height="22" fill="#a371f7" rx="3"/><text x="322" y="108" fill="#c9d1d9" font-family="ui-sans-serif,system-ui,sans-serif" font-size="11" text-anchor="end">humfmt  i8-u128, any precision</text><text x="868" y="108" fill="#c9d1d9" font-family="ui-monospace,monospace" font-size="11">229 ns</text><rect x="330" y="129" width="137" height="22" fill="#388bfd" rx="3"/><text x="322" y="144" fill="#c9d1d9" font-family="ui-sans-serif,system-ui,sans-serif" font-size="11" text-anchor="end">bytesize  u64 only</text><text x="868" y="144" fill="#c9d1d9" font-family="ui-monospace,monospace" font-size="11">286 ns</text><rect x="330" y="165" width="530" height="22" fill="#388bfd" rx="3"/><text x="322" y="180" fill="#c9d1d9" font-family="ui-sans-serif,system-ui,sans-serif" font-size="11" text-anchor="end">byte-unit  u64/u128</text><text x="868" y="180" fill="#c9d1d9" font-family="ui-monospace,monospace" font-size="11">1.11 us</text><line x1="20" y1="244" x2="980" y2="244" stroke="#30363d" stroke-width="1" stroke-dasharray="5 4"/><text x="20" y="286" fill="#c9d1d9" font-family="ui-sans-serif,system-ui,sans-serif" font-size="13" font-weight="600">Bytes — allocating (aligned: IEC + space) — lower is better</text><line x1="330" y1="308" x2="330" y2="380" stroke="#30363d" stroke-width="1"/><line x1="330" y1="380" x2="860" y2="380" stroke="#30363d" stroke-width="1"/><line x1="330" y1="380" x2="330" y2="384" stroke="#30363d" stroke-width="1"/><text x="330" y="396" fill="#8b949e" font-family="ui-monospace,monospace" font-size="10" text-anchor="start">0</text><line x1="463" y1="308" x2="463" y2="380" stroke="#21262d" stroke-width="1" stroke-dasharray="2 3"/><line x1="463" y1="380" x2="463" y2="384" stroke="#30363d" stroke-width="1"/><text x="463" y="396" fill="#8b949e" font-family="ui-monospace,monospace" font-size="10" text-anchor="middle">74 ns</text><line x1="595" y1="308" x2="595" y2="380" stroke="#21262d" stroke-width="1" stroke-dasharray="2 3"/><line x1="595" y1="380" x2="595" y2="384" stroke="#30363d" stroke-width="1"/><text x="595" y="396" fill="#8b949e" font-family="ui-monospace,monospace" font-size="10" text-anchor="middle">147 ns</text><line x1="728" y1="308" x2="728" y2="380" stroke="#21262d" stroke-width="1" stroke-dasharray="2 3"/><line x1="728" y1="380" x2="728" y2="384" stroke="#30363d" stroke-width="1"/><text x="728" y="396" fill="#8b949e" font-family="ui-monospace,monospace" font-size="10" text-anchor="middle">221 ns</text><line x1="860" y1="308" x2="860" y2="380" stroke="#21262d" stroke-width="1" stroke-dasharray="2 3"/><line x1="860" y1="380" x2="860" y2="384" stroke="#30363d" stroke-width="1"/><text x="860" y="396" fill="#8b949e" font-family="ui-monospace,monospace" font-size="10" text-anchor="end">294 ns</text><rect x="330" y="315" width="387" height="22" fill="#a371f7" rx="3"/><text x="322" y="330" fill="#c9d1d9" font-family="ui-sans-serif,system-ui,sans-serif" font-size="11" text-anchor="end">humfmt  u64, IEC, 2dp, space</text><text x="868" y="330" fill="#c9d1d9" font-family="ui-monospace,monospace" font-size="11">215 ns</text><rect x="330" y="351" width="530" height="22" fill="#388bfd" rx="3"/><text x="322" y="366" fill="#c9d1d9" font-family="ui-sans-serif,system-ui,sans-serif" font-size="11" text-anchor="end">indicatif HumanBytes  u64 only, IEC, fixed 2dp, space</text><text x="868" y="366" fill="#c9d1d9" font-family="ui-monospace,monospace" font-size="11">294 ns</text><line x1="20" y1="430" x2="980" y2="430" stroke="#30363d" stroke-width="1" stroke-dasharray="5 4"/><text x="20" y="472" fill="#c9d1d9" font-family="ui-sans-serif,system-ui,sans-serif" font-size="13" font-weight="600">Bytes — reused buffer (write!) — lower is better</text><line x1="330" y1="494" x2="330" y2="638" stroke="#30363d" stroke-width="1"/><line x1="330" y1="638" x2="860" y2="638" stroke="#30363d" stroke-width="1"/><line x1="330" y1="638" x2="330" y2="642" stroke="#30363d" stroke-width="1"/><text x="330" y="654" fill="#8b949e" font-family="ui-monospace,monospace" font-size="10" text-anchor="start">0</text><line x1="463" y1="494" x2="463" y2="638" stroke="#21262d" stroke-width="1" stroke-dasharray="2 3"/><line x1="463" y1="638" x2="463" y2="642" stroke="#30363d" stroke-width="1"/><text x="463" y="654" fill="#8b949e" font-family="ui-monospace,monospace" font-size="10" text-anchor="middle">223 ns</text><line x1="595" y1="494" x2="595" y2="638" stroke="#21262d" stroke-width="1" stroke-dasharray="2 3"/><line x1="595" y1="638" x2="595" y2="642" stroke="#30363d" stroke-width="1"/><text x="595" y="654" fill="#8b949e" font-family="ui-monospace,monospace" font-size="10" text-anchor="middle">446 ns</text><line x1="728" y1="494" x2="728" y2="638" stroke="#21262d" stroke-width="1" stroke-dasharray="2 3"/><line x1="728" y1="638" x2="728" y2="642" stroke="#30363d" stroke-width="1"/><text x="728" y="654" fill="#8b949e" font-family="ui-monospace,monospace" font-size="10" text-anchor="middle">670 ns</text><line x1="860" y1="494" x2="860" y2="638" stroke="#21262d" stroke-width="1" stroke-dasharray="2 3"/><line x1="860" y1="638" x2="860" y2="642" stroke="#30363d" stroke-width="1"/><text x="860" y="654" fill="#8b949e" font-family="ui-monospace,monospace" font-size="10" text-anchor="end">893 ns</text><rect x="330" y="501" width="28" height="22" fill="#388bfd" rx="3"/><text x="322" y="516" fill="#c9d1d9" font-family="ui-sans-serif,system-ui,sans-serif" font-size="11" text-anchor="end">prettier-bytes  u64 only, fixed 2dp, no negatives</text><text x="868" y="516" fill="#c9d1d9" font-family="ui-monospace,monospace" font-size="11">48 ns</text><rect x="330" y="537" width="80" height="22" fill="#a371f7" rx="3"/><text x="322" y="552" fill="#c9d1d9" font-family="ui-sans-serif,system-ui,sans-serif" font-size="11" text-anchor="end">humfmt  i8-u128, any precision</text><text x="868" y="552" fill="#c9d1d9" font-family="ui-monospace,monospace" font-size="11">134 ns</text><rect x="330" y="573" width="104" height="22" fill="#388bfd" rx="3"/><text x="322" y="588" fill="#c9d1d9" font-family="ui-sans-serif,system-ui,sans-serif" font-size="11" text-anchor="end">bytesize  u64 only</text><text x="868" y="588" fill="#c9d1d9" font-family="ui-monospace,monospace" font-size="11">176 ns</text><rect x="330" y="609" width="530" height="22" fill="#388bfd" rx="3"/><text x="322" y="624" fill="#c9d1d9" font-family="ui-sans-serif,system-ui,sans-serif" font-size="11" text-anchor="end">byte-unit  u64/u128</text><text x="868" y="624" fill="#c9d1d9" font-family="ui-monospace,monospace" font-size="11">893 ns</text><line x1="20" y1="688" x2="980" y2="688" stroke="#30363d" stroke-width="1" stroke-dasharray="5 4"/><text x="20" y="730" fill="#c9d1d9" font-family="ui-sans-serif,system-ui,sans-serif" font-size="13" font-weight="600">Bytes — reused buffer (aligned: IEC + space) — lower is better</text><line x1="330" y1="752" x2="330" y2="824" stroke="#30363d" stroke-width="1"/><line x1="330" y1="824" x2="860" y2="824" stroke="#30363d" stroke-width="1"/><line x1="330" y1="824" x2="330" y2="828" stroke="#30363d" stroke-width="1"/><text x="330" y="840" fill="#8b949e" font-family="ui-monospace,monospace" font-size="10" text-anchor="start">0</text><line x1="463" y1="752" x2="463" y2="824" stroke="#21262d" stroke-width="1" stroke-dasharray="2 3"/><line x1="463" y1="824" x2="463" y2="828" stroke="#30363d" stroke-width="1"/><text x="463" y="840" fill="#8b949e" font-family="ui-monospace,monospace" font-size="10" text-anchor="middle">46 ns</text><line x1="595" y1="752" x2="595" y2="824" stroke="#21262d" stroke-width="1" stroke-dasharray="2 3"/><line x1="595" y1="824" x2="595" y2="828" stroke="#30363d" stroke-width="1"/><text x="595" y="840" fill="#8b949e" font-family="ui-monospace,monospace" font-size="10" text-anchor="middle">93 ns</text><line x1="728" y1="752" x2="728" y2="824" stroke="#21262d" stroke-width="1" stroke-dasharray="2 3"/><line x1="728" y1="824" x2="728" y2="828" stroke="#30363d" stroke-width="1"/><text x="728" y="840" fill="#8b949e" font-family="ui-monospace,monospace" font-size="10" text-anchor="middle">139 ns</text><line x1="860" y1="752" x2="860" y2="824" stroke="#21262d" stroke-width="1" stroke-dasharray="2 3"/><line x1="860" y1="824" x2="860" y2="828" stroke="#30363d" stroke-width="1"/><text x="860" y="840" fill="#8b949e" font-family="ui-monospace,monospace" font-size="10" text-anchor="end">185 ns</text><rect x="330" y="759" width="350" height="22" fill="#a371f7" rx="3"/><text x="322" y="774" fill="#c9d1d9" font-family="ui-sans-serif,system-ui,sans-serif" font-size="11" text-anchor="end">humfmt  u64, IEC, 2dp, space</text><text x="868" y="774" fill="#c9d1d9" font-family="ui-monospace,monospace" font-size="11">122 ns</text><rect x="330" y="795" width="530" height="22" fill="#388bfd" rx="3"/><text x="322" y="810" fill="#c9d1d9" font-family="ui-sans-serif,system-ui,sans-serif" font-size="11" text-anchor="end">indicatif HumanBytes  u64 only, IEC, fixed 2dp, space</text><text x="868" y="810" fill="#c9d1d9" font-family="ui-monospace,monospace" font-size="11">185 ns</text></svg>