<svg xmlns="http://www.w3.org/2000/svg" width="1000" height="1076" viewBox="0 0 1000 1076"><rect width="100%" height="100%" fill="#0d1117"/><text x="20" y="28" fill="#c9d1d9" font-family="ui-sans-serif,system-ui,sans-serif" font-size="13" font-weight="600">Bytes — allocating (to_string) — lower is better</text><line x1="330" y1="50" x2="330" y2="194" stroke="#30363d" stroke-width="1"/><line x1="330" y1="194" x2="860" y2="194" stroke="#30363d" stroke-width="1"/><line x1="330" y1="194" x2="330" y2="198" stroke="#30363d" stroke-width="1"/><text x="330" y="210" fill="#8b949e" font-family="ui-monospace,monospace" font-size="10" text-anchor="start">0</text><line x1="463" y1="50" x2="463" y2="194" stroke="#21262d" stroke-width="1" stroke-dasharray="2 3"/><line x1="463" y1="194" x2="463" y2="198" stroke="#30363d" stroke-width="1"/><text x="463" y="210" fill="#8b949e" font-family="ui-monospace,monospace" font-size="10" text-anchor="middle">275 ns</text><line x1="595" y1="50" x2="595" y2="194" stroke="#21262d" stroke-width="1" stroke-dasharray="2 3"/><line x1="595" y1="194" x2="595" y2="198" stroke="#30363d" stroke-width="1"/><text x="595" y="210" fill="#8b949e" font-family="ui-monospace,monospace" font-size="10" text-anchor="middle">549 ns</text><line x1="728" y1="50" x2="728" y2="194" stroke="#21262d" stroke-width="1" stroke-dasharray="2 3"/><line x1="728" y1="194" x2="728" y2="198" stroke="#30363d" stroke-width="1"/><text x="728" y="210" fill="#8b949e" font-family="ui-monospace,monospace" font-size="10" text-anchor="middle">824 ns</text><line x1="860" y1="50" x2="860" y2="194" stroke="#21262d" stroke-width="1" stroke-dasharray="2 3"/><line x1="860" y1="194" x2="860" y2="198" stroke="#30363d" stroke-width="1"/><text x="860" y="210" fill="#8b949e" font-family="ui-monospace,monospace" font-size="10" text-anchor="end">1.10 us</text><rect x="330" y="57" width="65" height="22" fill="#388bfd" rx="3"/><text x="322" y="72" fill="#c9d1d9" font-family="ui-sans-serif,system-ui,sans-serif" font-size="11" text-anchor="end">prettier-bytes  u64 only, fixed 2dp, no negatives</text><text x="868" y="72" fill="#c9d1d9" font-family="ui-monospace,monospace" font-size="11">135 ns</text><rect x="330" y="93" width="111" height="22" fill="#a371f7" rx="3"/><text x="322" y="108" fill="#c9d1d9" font-family="ui-sans-serif,system-ui,sans-serif" font-size="11" text-anchor="end">humfmt  i8-u128, any precision</text><text x="868" y="108" fill="#c9d1d9" font-family="ui-monospace,monospace" font-size="11">230 ns</text><rect x="330" y="129" width="140" height="22" fill="#388bfd" rx="3"/><text x="322" y="144" fill="#c9d1d9" font-family="ui-sans-serif,system-ui,sans-serif" font-size="11" text-anchor="end">bytesize  u64 only (SI), default 1dp, space</text><text x="868" y="144" fill="#c9d1d9" font-family="ui-monospace,monospace" font-size="11">291 ns</text><rect x="330" y="165" width="530" height="22" fill="#388bfd" rx="3"/><text x="322" y="180" fill="#c9d1d9" font-family="ui-sans-serif,system-ui,sans-serif" font-size="11" text-anchor="end">byte-unit  u64 (auto unit), format! uses String</text><text x="868" y="180" fill="#c9d1d9" font-family="ui-monospace,monospace" font-size="11">1.10 us</text><line x1="20" y1="244" x2="980" y2="244" stroke="#30363d" stroke-width="1" stroke-dasharray="5 4"/><text x="20" y="286" fill="#c9d1d9" font-family="ui-sans-serif,system-ui,sans-serif" font-size="13" font-weight="600">Bytes — allocating (aligned: IEC + space + precision=2) — lower is better</text><line x1="330" y1="308" x2="330" y2="488" stroke="#30363d" stroke-width="1"/><line x1="330" y1="488" x2="860" y2="488" stroke="#30363d" stroke-width="1"/><line x1="330" y1="488" x2="330" y2="492" stroke="#30363d" stroke-width="1"/><text x="330" y="504" fill="#8b949e" font-family="ui-monospace,monospace" font-size="10" text-anchor="start">0</text><line x1="463" y1="308" x2="463" y2="488" stroke="#21262d" stroke-width="1" stroke-dasharray="2 3"/><line x1="463" y1="488" x2="463" y2="492" stroke="#30363d" stroke-width="1"/><text x="463" y="504" fill="#8b949e" font-family="ui-monospace,monospace" font-size="10" text-anchor="middle">110 ns</text><line x1="595" y1="308" x2="595" y2="488" stroke="#21262d" stroke-width="1" stroke-dasharray="2 3"/><line x1="595" y1="488" x2="595" y2="492" stroke="#30363d" stroke-width="1"/><text x="595" y="504" fill="#8b949e" font-family="ui-monospace,monospace" font-size="10" text-anchor="middle">221 ns</text><line x1="728" y1="308" x2="728" y2="488" stroke="#21262d" stroke-width="1" stroke-dasharray="2 3"/><line x1="728" y1="488" x2="728" y2="492" stroke="#30363d" stroke-width="1"/><text x="728" y="504" fill="#8b949e" font-family="ui-monospace,monospace" font-size="10" text-anchor="middle">331 ns</text><line x1="860" y1="308" x2="860" y2="488" stroke="#21262d" stroke-width="1" stroke-dasharray="2 3"/><line x1="860" y1="488" x2="860" y2="492" stroke="#30363d" stroke-width="1"/><text x="860" y="504" fill="#8b949e" font-family="ui-monospace,monospace" font-size="10" text-anchor="end">442 ns</text><rect x="330" y="315" width="256" height="22" fill="#a371f7" rx="3"/><text x="322" y="330" fill="#c9d1d9" font-family="ui-sans-serif,system-ui,sans-serif" font-size="11" text-anchor="end">humfmt  u64, IEC, precision=2, space (trims zeros)</text><text x="868" y="330" fill="#c9d1d9" font-family="ui-monospace,monospace" font-size="11">213 ns</text><rect x="330" y="351" width="327" height="22" fill="#388bfd" rx="3"/><text x="322" y="366" fill="#c9d1d9" font-family="ui-sans-serif,system-ui,sans-serif" font-size="11" text-anchor="end">byte-unit  u64 only, IEC, fixed 2dp, space</text><text x="868" y="366" fill="#c9d1d9" font-family="ui-monospace,monospace" font-size="11">272 ns</text><rect x="330" y="387" width="358" height="22" fill="#388bfd" rx="3"/><text x="322" y="402" fill="#c9d1d9" font-family="ui-sans-serif,system-ui,sans-serif" font-size="11" text-anchor="end">bytesize  u64 only, IEC, fixed 2dp, space</text><text x="868" y="402" fill="#c9d1d9" font-family="ui-monospace,monospace" font-size="11">299 ns</text><rect x="330" y="423" width="359" height="22" fill="#388bfd" rx="3"/><text x="322" y="438" fill="#c9d1d9" font-family="ui-sans-serif,system-ui,sans-serif" font-size="11" text-anchor="end">indicatif HumanBytes  u64 only, IEC, fixed 2dp, space</text><text x="868" y="438" fill="#c9d1d9" font-family="ui-monospace,monospace" font-size="11">299 ns</text><rect x="330" y="459" width="530" height="22" fill="#388bfd" rx="3"/><text x="322" y="474" fill="#c9d1d9" font-family="ui-sans-serif,system-ui,sans-serif" font-size="11" text-anchor="end">human-repr  u64, IEC+space (feature), decimals are algorithmic</text><text x="868" y="474" fill="#c9d1d9" font-family="ui-monospace,monospace" font-size="11">442 ns</text><line x1="20" y1="538" x2="980" y2="538" stroke="#30363d" stroke-width="1" stroke-dasharray="5 4"/><text x="20" y="580" fill="#c9d1d9" font-family="ui-sans-serif,system-ui,sans-serif" font-size="13" font-weight="600">Bytes — reused buffer (write!) — lower is better</text><line x1="330" y1="602" x2="330" y2="746" stroke="#30363d" stroke-width="1"/><line x1="330" y1="746" x2="860" y2="746" stroke="#30363d" stroke-width="1"/><line x1="330" y1="746" x2="330" y2="750" stroke="#30363d" stroke-width="1"/><text x="330" y="762" fill="#8b949e" font-family="ui-monospace,monospace" font-size="10" text-anchor="start">0</text><line x1="463" y1="602" x2="463" y2="746" stroke="#21262d" stroke-width="1" stroke-dasharray="2 3"/><line x1="463" y1="746" x2="463" y2="750" stroke="#30363d" stroke-width="1"/><text x="463" y="762" fill="#8b949e" font-family="ui-monospace,monospace" font-size="10" text-anchor="middle">218 ns</text><line x1="595" y1="602" x2="595" y2="746" stroke="#21262d" stroke-width="1" stroke-dasharray="2 3"/><line x1="595" y1="746" x2="595" y2="750" stroke="#30363d" stroke-width="1"/><text x="595" y="762" fill="#8b949e" font-family="ui-monospace,monospace" font-size="10" text-anchor="middle">436 ns</text><line x1="728" y1="602" x2="728" y2="746" stroke="#21262d" stroke-width="1" stroke-dasharray="2 3"/><line x1="728" y1="746" x2="728" y2="750" stroke="#30363d" stroke-width="1"/><text x="728" y="762" fill="#8b949e" font-family="ui-monospace,monospace" font-size="10" text-anchor="middle">654 ns</text><line x1="860" y1="602" x2="860" y2="746" stroke="#21262d" stroke-width="1" stroke-dasharray="2 3"/><line x1="860" y1="746" x2="860" y2="750" stroke="#30363d" stroke-width="1"/><text x="860" y="762" fill="#8b949e" font-family="ui-monospace,monospace" font-size="10" text-anchor="end">872 ns</text><rect x="330" y="609" width="30" height="22" fill="#388bfd" rx="3"/><text x="322" y="624" fill="#c9d1d9" font-family="ui-sans-serif,system-ui,sans-serif" font-size="11" text-anchor="end">prettier-bytes  u64 only, fixed 2dp, no negatives</text><text x="868" y="624" fill="#c9d1d9" font-family="ui-monospace,monospace" font-size="11">49 ns</text><rect x="330" y="645" width="82" height="22" fill="#a371f7" rx="3"/><text x="322" y="660" fill="#c9d1d9" font-family="ui-sans-serif,system-ui,sans-serif" font-size="11" text-anchor="end">humfmt  i8-u128, any precision</text><text x="868" y="660" fill="#c9d1d9" font-family="ui-monospace,monospace" font-size="11">135 ns</text><rect x="330" y="681" width="108" height="22" fill="#388bfd" rx="3"/><text x="322" y="696" fill="#c9d1d9" font-family="ui-sans-serif,system-ui,sans-serif" font-size="11" text-anchor="end">bytesize  u64 only (SI), default 1dp, space</text><text x="868" y="696" fill="#c9d1d9" font-family="ui-monospace,monospace" font-size="11">178 ns</text><rect x="330" y="717" width="530" height="22" fill="#388bfd" rx="3"/><text x="322" y="732" fill="#c9d1d9" font-family="ui-sans-serif,system-ui,sans-serif" font-size="11" text-anchor="end">byte-unit  u64 (auto unit), write! + Display</text><text x="868" y="732" fill="#c9d1d9" font-family="ui-monospace,monospace" font-size="11">872 ns</text><line x1="20" y1="796" x2="980" y2="796" stroke="#30363d" stroke-width="1" stroke-dasharray="5 4"/><text x="20" y="838" fill="#c9d1d9" font-family="ui-sans-serif,system-ui,sans-serif" font-size="13" font-weight="600">Bytes — reused buffer (aligned: IEC + space + precision=2) — lower is better</text><line x1="330" y1="860" x2="330" y2="1040" stroke="#30363d" stroke-width="1"/><line x1="330" y1="1040" x2="860" y2="1040" stroke="#30363d" stroke-width="1"/><line x1="330" y1="1040" x2="330" y2="1044" stroke="#30363d" stroke-width="1"/><text x="330" y="1056" fill="#8b949e" font-family="ui-monospace,monospace" font-size="10" text-anchor="start">0</text><line x1="463" y1="860" x2="463" y2="1040" stroke="#21262d" stroke-width="1" stroke-dasharray="2 3"/><line x1="463" y1="1040" x2="463" y2="1044" stroke="#30363d" stroke-width="1"/><text x="463" y="1056" fill="#8b949e" font-family="ui-monospace,monospace" font-size="10" text-anchor="middle">85 ns</text><line x1="595" y1="860" x2="595" y2="1040" stroke="#21262d" stroke-width="1" stroke-dasharray="2 3"/><line x1="595" y1="1040" x2="595" y2="1044" stroke="#30363d" stroke-width="1"/><text x="595" y="1056" fill="#8b949e" font-family="ui-monospace,monospace" font-size="10" text-anchor="middle">170 ns</text><line x1="728" y1="860" x2="728" y2="1040" stroke="#21262d" stroke-width="1" stroke-dasharray="2 3"/><line x1="728" y1="1040" x2="728" y2="1044" stroke="#30363d" stroke-width="1"/><text x="728" y="1056" fill="#8b949e" font-family="ui-monospace,monospace" font-size="10" text-anchor="middle">254 ns</text><line x1="860" y1="860" x2="860" y2="1040" stroke="#21262d" stroke-width="1" stroke-dasharray="2 3"/><line x1="860" y1="1040" x2="860" y2="1044" stroke="#30363d" stroke-width="1"/><text x="860" y="1056" fill="#8b949e" font-family="ui-monospace,monospace" font-size="10" text-anchor="end">339 ns</text><rect x="330" y="867" width="191" height="22" fill="#a371f7" rx="3"/><text x="322" y="882" fill="#c9d1d9" font-family="ui-sans-serif,system-ui,sans-serif" font-size="11" text-anchor="end">humfmt  u64, IEC, precision=2, space (trims zeros)</text><text x="868" y="882" fill="#c9d1d9" font-family="ui-monospace,monospace" font-size="11">122 ns</text><rect x="330" y="903" width="260" height="22" fill="#388bfd" rx="3"/><text x="322" y="918" fill="#c9d1d9" font-family="ui-sans-serif,system-ui,sans-serif" font-size="11" text-anchor="end">byte-unit  u64 only, IEC, fixed 2dp, space</text><text x="868" y="918" fill="#c9d1d9" font-family="ui-monospace,monospace" font-size="11">166 ns</text><rect x="330" y="939" width="289" height="22" fill="#388bfd" rx="3"/><text x="322" y="954" fill="#c9d1d9" font-family="ui-sans-serif,system-ui,sans-serif" font-size="11" text-anchor="end">indicatif HumanBytes  u64 only, IEC, fixed 2dp, space</text><text x="868" y="954" fill="#c9d1d9" font-family="ui-monospace,monospace" font-size="11">185 ns</text><rect x="330" y="975" width="300" height="22" fill="#388bfd" rx="3"/><text x="322" y="990" fill="#c9d1d9" font-family="ui-sans-serif,system-ui,sans-serif" font-size="11" text-anchor="end">bytesize  u64 only, IEC, fixed 2dp, space</text><text x="868" y="990" fill="#c9d1d9" font-family="ui-monospace,monospace" font-size="11">192 ns</text><rect x="330" y="1011" width="530" height="22" fill="#388bfd" rx="3"/><text x="322" y="1026" fill="#c9d1d9" font-family="ui-sans-serif,system-ui,sans-serif" font-size="11" text-anchor="end">human-repr  u64, IEC+space (feature), decimals are algorithmic</text><text x="868" y="1026" fill="#c9d1d9" font-family="ui-monospace,monospace" font-size="11">339 ns</text></svg>