<svg xmlns="http://www.w3.org/2000/svg" width="1000" height="1220" viewBox="0 0 1000 1220"><rect width="100%" height="100%" fill="#0d1117"/><text x="20" y="28" fill="#c9d1d9" font-family="ui-sans-serif,system-ui,sans-serif" font-size="13" font-weight="600">Bytes — allocating (to_string) — lower is better</text><line x1="330" y1="50" x2="330" y2="230" stroke="#30363d" stroke-width="1"/><line x1="330" y1="230" x2="860" y2="230" stroke="#30363d" stroke-width="1"/><line x1="330" y1="230" x2="330" y2="234" stroke="#30363d" stroke-width="1"/><text x="330" y="246" fill="#8b949e" font-family="ui-monospace,monospace" font-size="10" text-anchor="start">0</text><line x1="463" y1="50" x2="463" y2="230" stroke="#21262d" stroke-width="1" stroke-dasharray="2 3"/><line x1="463" y1="230" x2="463" y2="234" stroke="#30363d" stroke-width="1"/><text x="463" y="246" fill="#8b949e" font-family="ui-monospace,monospace" font-size="10" text-anchor="middle">140 ns</text><line x1="595" y1="50" x2="595" y2="230" stroke="#21262d" stroke-width="1" stroke-dasharray="2 3"/><line x1="595" y1="230" x2="595" y2="234" stroke="#30363d" stroke-width="1"/><text x="595" y="246" fill="#8b949e" font-family="ui-monospace,monospace" font-size="10" text-anchor="middle">281 ns</text><line x1="728" y1="50" x2="728" y2="230" stroke="#21262d" stroke-width="1" stroke-dasharray="2 3"/><line x1="728" y1="230" x2="728" y2="234" stroke="#30363d" stroke-width="1"/><text x="728" y="246" fill="#8b949e" font-family="ui-monospace,monospace" font-size="10" text-anchor="middle">421 ns</text><line x1="860" y1="50" x2="860" y2="230" stroke="#21262d" stroke-width="1" stroke-dasharray="2 3"/><line x1="860" y1="230" x2="860" y2="234" stroke="#30363d" stroke-width="1"/><text x="860" y="246" fill="#8b949e" font-family="ui-monospace,monospace" font-size="10" text-anchor="end">562 ns</text><rect x="330" y="57" width="38" height="22" fill="#388bfd" rx="3"/><text x="322" y="72" fill="#c9d1d9" font-family="ui-sans-serif,system-ui,sans-serif" font-size="11" text-anchor="end">prettier-bytes  u64 only, fixed 2dp, no negatives</text><text x="868" y="72" fill="#c9d1d9" font-family="ui-monospace,monospace" font-size="11">40 ns</text><rect x="330" y="93" width="86" height="22" fill="#a371f7" rx="3"/><text x="322" y="108" fill="#c9d1d9" font-family="ui-sans-serif,system-ui,sans-serif" font-size="11" text-anchor="end">humfmt  i8-u128, any precision</text><text x="868" y="108" fill="#c9d1d9" font-family="ui-monospace,monospace" font-size="11">91 ns</text><rect x="330" y="129" width="115" height="22" fill="#388bfd" rx="3"/><text x="322" y="144" fill="#c9d1d9" font-family="ui-sans-serif,system-ui,sans-serif" font-size="11" text-anchor="end">bytesize  u64 only (SI), default 1dp, space</text><text x="868" y="144" fill="#c9d1d9" font-family="ui-monospace,monospace" font-size="11">122 ns</text><rect x="330" y="165" width="161" height="22" fill="#388bfd" rx="3"/><text x="322" y="180" fill="#c9d1d9" font-family="ui-sans-serif,system-ui,sans-serif" font-size="11" text-anchor="end">humansize  u64 only, SI, precision=2, no space</text><text x="868" y="180" fill="#c9d1d9" font-family="ui-monospace,monospace" font-size="11">171 ns</text><rect x="330" y="201" width="530" height="22" fill="#388bfd" rx="3"/><text x="322" y="216" fill="#c9d1d9" font-family="ui-sans-serif,system-ui,sans-serif" font-size="11" text-anchor="end">byte-unit  u64 (auto unit), format! uses String</text><text x="868" y="216" fill="#c9d1d9" font-family="ui-monospace,monospace" font-size="11">562 ns</text><line x1="20" y1="280" x2="980" y2="280" stroke="#30363d" stroke-width="1" stroke-dasharray="5 4"/><text x="20" y="322" fill="#c9d1d9" font-family="ui-sans-serif,system-ui,sans-serif" font-size="13" font-weight="600">Bytes — allocating (aligned: IEC + space + precision=2) — lower is better</text><line x1="330" y1="344" x2="330" y2="560" stroke="#30363d" stroke-width="1"/><line x1="330" y1="560" x2="860" y2="560" stroke="#30363d" stroke-width="1"/><line x1="330" y1="560" x2="330" y2="564" stroke="#30363d" stroke-width="1"/><text x="330" y="576" fill="#8b949e" font-family="ui-monospace,monospace" font-size="10" text-anchor="start">0</text><line x1="463" y1="344" x2="463" y2="560" stroke="#21262d" stroke-width="1" stroke-dasharray="2 3"/><line x1="463" y1="560" x2="463" y2="564" stroke="#30363d" stroke-width="1"/><text x="463" y="576" fill="#8b949e" font-family="ui-monospace,monospace" font-size="10" text-anchor="middle">44 ns</text><line x1="595" y1="344" x2="595" y2="560" stroke="#21262d" stroke-width="1" stroke-dasharray="2 3"/><line x1="595" y1="560" x2="595" y2="564" stroke="#30363d" stroke-width="1"/><text x="595" y="576" fill="#8b949e" font-family="ui-monospace,monospace" font-size="10" text-anchor="middle">89 ns</text><line x1="728" y1="344" x2="728" y2="560" stroke="#21262d" stroke-width="1" stroke-dasharray="2 3"/><line x1="728" y1="560" x2="728" y2="564" stroke="#30363d" stroke-width="1"/><text x="728" y="576" fill="#8b949e" font-family="ui-monospace,monospace" font-size="10" text-anchor="middle">133 ns</text><line x1="860" y1="344" x2="860" y2="560" stroke="#21262d" stroke-width="1" stroke-dasharray="2 3"/><line x1="860" y1="560" x2="860" y2="564" stroke="#30363d" stroke-width="1"/><text x="860" y="576" fill="#8b949e" font-family="ui-monospace,monospace" font-size="10" text-anchor="end">177 ns</text><rect x="330" y="351" width="267" height="22" fill="#a371f7" rx="3"/><text x="322" y="366" fill="#c9d1d9" font-family="ui-sans-serif,system-ui,sans-serif" font-size="11" text-anchor="end">humfmt  u64, IEC, precision=2, space (trims zeros)</text><text x="868" y="366" fill="#c9d1d9" font-family="ui-monospace,monospace" font-size="11">89 ns</text><rect x="330" y="387" width="361" height="22" fill="#388bfd" rx="3"/><text x="322" y="402" fill="#c9d1d9" font-family="ui-sans-serif,system-ui,sans-serif" font-size="11" text-anchor="end">byte-unit  u64 only, IEC, fixed 2dp, space</text><text x="868" y="402" fill="#c9d1d9" font-family="ui-monospace,monospace" font-size="11">121 ns</text><rect x="330" y="423" width="372" height="22" fill="#388bfd" rx="3"/><text x="322" y="438" fill="#c9d1d9" font-family="ui-sans-serif,system-ui,sans-serif" font-size="11" text-anchor="end">indicatif HumanBytes  u64 only, IEC, fixed 2dp, space</text><text x="868" y="438" fill="#c9d1d9" font-family="ui-monospace,monospace" font-size="11">124 ns</text><rect x="330" y="459" width="383" height="22" fill="#388bfd" rx="3"/><text x="322" y="474" fill="#c9d1d9" font-family="ui-sans-serif,system-ui,sans-serif" font-size="11" text-anchor="end">bytesize  u64 only, IEC, fixed 2dp, space</text><text x="868" y="474" fill="#c9d1d9" font-family="ui-monospace,monospace" font-size="11">128 ns</text><rect x="330" y="495" width="469" height="22" fill="#388bfd" rx="3"/><text x="322" y="510" fill="#c9d1d9" font-family="ui-sans-serif,system-ui,sans-serif" font-size="11" text-anchor="end">humansize  u64 only, IEC, fixed 2dp, space</text><text x="868" y="510" fill="#c9d1d9" font-family="ui-monospace,monospace" font-size="11">157 ns</text><rect x="330" y="531" width="530" height="22" fill="#388bfd" rx="3"/><text x="322" y="546" fill="#c9d1d9" font-family="ui-sans-serif,system-ui,sans-serif" font-size="11" text-anchor="end">human-repr  u64, IEC+space (feature)</text><text x="868" y="546" fill="#c9d1d9" font-family="ui-monospace,monospace" font-size="11">177 ns</text><line x1="20" y1="610" x2="980" y2="610" stroke="#30363d" stroke-width="1" stroke-dasharray="5 4"/><text x="20" y="652" fill="#c9d1d9" font-family="ui-sans-serif,system-ui,sans-serif" font-size="13" font-weight="600">Bytes — reused buffer (write!) — lower is better</text><line x1="330" y1="674" x2="330" y2="854" stroke="#30363d" stroke-width="1"/><line x1="330" y1="854" x2="860" y2="854" stroke="#30363d" stroke-width="1"/><line x1="330" y1="854" x2="330" y2="858" stroke="#30363d" stroke-width="1"/><text x="330" y="870" fill="#8b949e" font-family="ui-monospace,monospace" font-size="10" text-anchor="start">0</text><line x1="463" y1="674" x2="463" y2="854" stroke="#21262d" stroke-width="1" stroke-dasharray="2 3"/><line x1="463" y1="854" x2="463" y2="858" stroke="#30363d" stroke-width="1"/><text x="463" y="870" fill="#8b949e" font-family="ui-monospace,monospace" font-size="10" text-anchor="middle">132 ns</text><line x1="595" y1="674" x2="595" y2="854" stroke="#21262d" stroke-width="1" stroke-dasharray="2 3"/><line x1="595" y1="854" x2="595" y2="858" stroke="#30363d" stroke-width="1"/><text x="595" y="870" fill="#8b949e" font-family="ui-monospace,monospace" font-size="10" text-anchor="middle">263 ns</text><line x1="728" y1="674" x2="728" y2="854" stroke="#21262d" stroke-width="1" stroke-dasharray="2 3"/><line x1="728" y1="854" x2="728" y2="858" stroke="#30363d" stroke-width="1"/><text x="728" y="870" fill="#8b949e" font-family="ui-monospace,monospace" font-size="10" text-anchor="middle">395 ns</text><line x1="860" y1="674" x2="860" y2="854" stroke="#21262d" stroke-width="1" stroke-dasharray="2 3"/><line x1="860" y1="854" x2="860" y2="858" stroke="#30363d" stroke-width="1"/><text x="860" y="870" fill="#8b949e" font-family="ui-monospace,monospace" font-size="10" text-anchor="end">527 ns</text><rect x="330" y="681" width="24" height="22" fill="#388bfd" rx="3"/><text x="322" y="696" fill="#c9d1d9" font-family="ui-sans-serif,system-ui,sans-serif" font-size="11" text-anchor="end">prettier-bytes  u64 only, fixed 2dp, no negatives</text><text x="868" y="696" fill="#c9d1d9" font-family="ui-monospace,monospace" font-size="11">24 ns</text><rect x="330" y="717" width="80" height="22" fill="#a371f7" rx="3"/><text x="322" y="732" fill="#c9d1d9" font-family="ui-sans-serif,system-ui,sans-serif" font-size="11" text-anchor="end">humfmt  i8-u128, any precision</text><text x="868" y="732" fill="#c9d1d9" font-family="ui-monospace,monospace" font-size="11">79 ns</text><rect x="330" y="753" width="109" height="22" fill="#388bfd" rx="3"/><text x="322" y="768" fill="#c9d1d9" font-family="ui-sans-serif,system-ui,sans-serif" font-size="11" text-anchor="end">bytesize  u64 only (SI), default 1dp, space</text><text x="868" y="768" fill="#c9d1d9" font-family="ui-monospace,monospace" font-size="11">109 ns</text><rect x="330" y="789" width="151" height="22" fill="#388bfd" rx="3"/><text x="322" y="804" fill="#c9d1d9" font-family="ui-sans-serif,system-ui,sans-serif" font-size="11" text-anchor="end">humansize  u64 only, SI, precision=2, no space</text><text x="868" y="804" fill="#c9d1d9" font-family="ui-monospace,monospace" font-size="11">150 ns</text><rect x="330" y="825" width="530" height="22" fill="#388bfd" rx="3"/><text x="322" y="840" fill="#c9d1d9" font-family="ui-sans-serif,system-ui,sans-serif" font-size="11" text-anchor="end">byte-unit  u64 (auto unit), write! + Display</text><text x="868" y="840" fill="#c9d1d9" font-family="ui-monospace,monospace" font-size="11">527 ns</text><line x1="20" y1="904" x2="980" y2="904" stroke="#30363d" stroke-width="1" stroke-dasharray="5 4"/><text x="20" y="946" fill="#c9d1d9" font-family="ui-sans-serif,system-ui,sans-serif" font-size="13" font-weight="600">Bytes — reused buffer (aligned: IEC + space + precision=2) — lower is better</text><line x1="330" y1="968" x2="330" y2="1184" stroke="#30363d" stroke-width="1"/><line x1="330" y1="1184" x2="860" y2="1184" stroke="#30363d" stroke-width="1"/><line x1="330" y1="1184" x2="330" y2="1188" stroke="#30363d" stroke-width="1"/><text x="330" y="1200" fill="#8b949e" font-family="ui-monospace,monospace" font-size="10" text-anchor="start">0</text><line x1="463" y1="968" x2="463" y2="1184" stroke="#21262d" stroke-width="1" stroke-dasharray="2 3"/><line x1="463" y1="1184" x2="463" y2="1188" stroke="#30363d" stroke-width="1"/><text x="463" y="1200" fill="#8b949e" font-family="ui-monospace,monospace" font-size="10" text-anchor="middle">39 ns</text><line x1="595" y1="968" x2="595" y2="1184" stroke="#21262d" stroke-width="1" stroke-dasharray="2 3"/><line x1="595" y1="1184" x2="595" y2="1188" stroke="#30363d" stroke-width="1"/><text x="595" y="1200" fill="#8b949e" font-family="ui-monospace,monospace" font-size="10" text-anchor="middle">78 ns</text><line x1="728" y1="968" x2="728" y2="1184" stroke="#21262d" stroke-width="1" stroke-dasharray="2 3"/><line x1="728" y1="1184" x2="728" y2="1188" stroke="#30363d" stroke-width="1"/><text x="728" y="1200" fill="#8b949e" font-family="ui-monospace,monospace" font-size="10" text-anchor="middle">117 ns</text><line x1="860" y1="968" x2="860" y2="1184" stroke="#21262d" stroke-width="1" stroke-dasharray="2 3"/><line x1="860" y1="1184" x2="860" y2="1188" stroke="#30363d" stroke-width="1"/><text x="860" y="1200" fill="#8b949e" font-family="ui-monospace,monospace" font-size="10" text-anchor="end">156 ns</text><rect x="330" y="975" width="260" height="22" fill="#a371f7" rx="3"/><text x="322" y="990" fill="#c9d1d9" font-family="ui-sans-serif,system-ui,sans-serif" font-size="11" text-anchor="end">humfmt  u64, IEC, precision=2, space (trims zeros)</text><text x="868" y="990" fill="#c9d1d9" font-family="ui-monospace,monospace" font-size="11">76 ns</text><rect x="330" y="1011" width="330" height="22" fill="#388bfd" rx="3"/><text x="322" y="1026" fill="#c9d1d9" font-family="ui-sans-serif,system-ui,sans-serif" font-size="11" text-anchor="end">byte-unit  u64 only, IEC, fixed 2dp, space</text><text x="868" y="1026" fill="#c9d1d9" font-family="ui-monospace,monospace" font-size="11">97 ns</text><rect x="330" y="1047" width="351" height="22" fill="#388bfd" rx="3"/><text x="322" y="1062" fill="#c9d1d9" font-family="ui-sans-serif,system-ui,sans-serif" font-size="11" text-anchor="end">bytesize  u64 only, IEC, fixed 2dp, space</text><text x="868" y="1062" fill="#c9d1d9" font-family="ui-monospace,monospace" font-size="11">103 ns</text><rect x="330" y="1083" width="367" height="22" fill="#388bfd" rx="3"/><text x="322" y="1098" fill="#c9d1d9" font-family="ui-sans-serif,system-ui,sans-serif" font-size="11" text-anchor="end">indicatif HumanBytes  u64 only, IEC, fixed 2dp, space</text><text x="868" y="1098" fill="#c9d1d9" font-family="ui-monospace,monospace" font-size="11">108 ns</text><rect x="330" y="1119" width="464" height="22" fill="#388bfd" rx="3"/><text x="322" y="1134" fill="#c9d1d9" font-family="ui-sans-serif,system-ui,sans-serif" font-size="11" text-anchor="end">humansize  u64 only, IEC, fixed 2dp, space</text><text x="868" y="1134" fill="#c9d1d9" font-family="ui-monospace,monospace" font-size="11">136 ns</text><rect x="330" y="1155" width="530" height="22" fill="#388bfd" rx="3"/><text x="322" y="1170" fill="#c9d1d9" font-family="ui-sans-serif,system-ui,sans-serif" font-size="11" text-anchor="end">human-repr  u64, IEC+space (feature)</text><text x="868" y="1170" fill="#c9d1d9" font-family="ui-monospace,monospace" font-size="11">156 ns</text></svg>