<svg xmlns="http://www.w3.org/2000/svg" width="1000" height="1004" viewBox="0 0 1000 1004"><rect width="100%" height="100%" fill="#0d1117"/><text x="20" y="28" fill="#c9d1d9" font-family="ui-sans-serif,system-ui,sans-serif" font-size="13" font-weight="600">Numbers — allocating, mixed inputs — lower is better</text><line x1="330" y1="50" x2="330" y2="194" stroke="#30363d" stroke-width="1"/><line x1="330" y1="194" x2="860" y2="194" stroke="#30363d" stroke-width="1"/><line x1="330" y1="194" x2="330" y2="198" stroke="#30363d" stroke-width="1"/><text x="330" y="210" fill="#8b949e" font-family="ui-monospace,monospace" font-size="10" text-anchor="start">0</text><line x1="463" y1="50" x2="463" y2="194" stroke="#21262d" stroke-width="1" stroke-dasharray="2 3"/><line x1="463" y1="194" x2="463" y2="198" stroke="#30363d" stroke-width="1"/><text x="463" y="210" fill="#8b949e" font-family="ui-monospace,monospace" font-size="10" text-anchor="middle">136 ns</text><line x1="595" y1="50" x2="595" y2="194" stroke="#21262d" stroke-width="1" stroke-dasharray="2 3"/><line x1="595" y1="194" x2="595" y2="198" stroke="#30363d" stroke-width="1"/><text x="595" y="210" fill="#8b949e" font-family="ui-monospace,monospace" font-size="10" text-anchor="middle">271 ns</text><line x1="728" y1="50" x2="728" y2="194" stroke="#21262d" stroke-width="1" stroke-dasharray="2 3"/><line x1="728" y1="194" x2="728" y2="198" stroke="#30363d" stroke-width="1"/><text x="728" y="210" fill="#8b949e" font-family="ui-monospace,monospace" font-size="10" text-anchor="middle">407 ns</text><line x1="860" y1="50" x2="860" y2="194" stroke="#21262d" stroke-width="1" stroke-dasharray="2 3"/><line x1="860" y1="194" x2="860" y2="198" stroke="#30363d" stroke-width="1"/><text x="860" y="210" fill="#8b949e" font-family="ui-monospace,monospace" font-size="10" text-anchor="end">542 ns</text><rect x="330" y="57" width="208" height="22" fill="#a371f7" rx="3"/><text x="322" y="72" fill="#c9d1d9" font-family="ui-sans-serif,system-ui,sans-serif" font-size="11" text-anchor="end">humfmt  i64, precision=1 (default)</text><text x="868" y="72" fill="#c9d1d9" font-family="ui-monospace,monospace" font-size="11">213 ns</text><rect x="330" y="93" width="215" height="22" fill="#388bfd" rx="3"/><text x="322" y="108" fill="#c9d1d9" font-family="ui-sans-serif,system-ui,sans-serif" font-size="11" text-anchor="end">numfmt  i64, short scale, precision=2</text><text x="868" y="108" fill="#c9d1d9" font-family="ui-monospace,monospace" font-size="11">220 ns</text><rect x="330" y="129" width="226" height="22" fill="#a371f7" rx="3"/><text x="322" y="144" fill="#c9d1d9" font-family="ui-sans-serif,system-ui,sans-serif" font-size="11" text-anchor="end">humfmt  i64, precision=2</text><text x="868" y="144" fill="#c9d1d9" font-family="ui-monospace,monospace" font-size="11">232 ns</text><rect x="330" y="165" width="530" height="22" fill="#388bfd" rx="3"/><text x="322" y="180" fill="#c9d1d9" font-family="ui-sans-serif,system-ui,sans-serif" font-size="11" text-anchor="end">human_format  f64 only, precision=2, returns String</text><text x="868" y="180" fill="#c9d1d9" font-family="ui-monospace,monospace" font-size="11">542 ns</text><line x1="20" y1="244" x2="980" y2="244" stroke="#30363d" stroke-width="1" stroke-dasharray="5 4"/><text x="20" y="286" fill="#c9d1d9" font-family="ui-sans-serif,system-ui,sans-serif" font-size="13" font-weight="600">Numbers — allocating, u64 inputs (apples-to-apples) — lower is better</text><line x1="330" y1="308" x2="330" y2="488" stroke="#30363d" stroke-width="1"/><line x1="330" y1="488" x2="860" y2="488" stroke="#30363d" stroke-width="1"/><line x1="330" y1="488" x2="330" y2="492" stroke="#30363d" stroke-width="1"/><text x="330" y="504" fill="#8b949e" font-family="ui-monospace,monospace" font-size="10" text-anchor="start">0</text><line x1="463" y1="308" x2="463" y2="488" stroke="#21262d" stroke-width="1" stroke-dasharray="2 3"/><line x1="463" y1="488" x2="463" y2="492" stroke="#30363d" stroke-width="1"/><text x="463" y="504" fill="#8b949e" font-family="ui-monospace,monospace" font-size="10" text-anchor="middle">123 ns</text><line x1="595" y1="308" x2="595" y2="488" stroke="#21262d" stroke-width="1" stroke-dasharray="2 3"/><line x1="595" y1="488" x2="595" y2="492" stroke="#30363d" stroke-width="1"/><text x="595" y="504" fill="#8b949e" font-family="ui-monospace,monospace" font-size="10" text-anchor="middle">245 ns</text><line x1="728" y1="308" x2="728" y2="488" stroke="#21262d" stroke-width="1" stroke-dasharray="2 3"/><line x1="728" y1="488" x2="728" y2="492" stroke="#30363d" stroke-width="1"/><text x="728" y="504" fill="#8b949e" font-family="ui-monospace,monospace" font-size="10" text-anchor="middle">368 ns</text><line x1="860" y1="308" x2="860" y2="488" stroke="#21262d" stroke-width="1" stroke-dasharray="2 3"/><line x1="860" y1="488" x2="860" y2="492" stroke="#30363d" stroke-width="1"/><text x="860" y="504" fill="#8b949e" font-family="ui-monospace,monospace" font-size="10" text-anchor="end">491 ns</text><rect x="330" y="315" width="232" height="22" fill="#a371f7" rx="3"/><text x="322" y="330" fill="#c9d1d9" font-family="ui-sans-serif,system-ui,sans-serif" font-size="11" text-anchor="end">humfmt  u64, precision=1</text><text x="868" y="330" fill="#c9d1d9" font-family="ui-monospace,monospace" font-size="11">215 ns</text><rect x="330" y="351" width="246" height="22" fill="#a371f7" rx="3"/><text x="322" y="366" fill="#c9d1d9" font-family="ui-sans-serif,system-ui,sans-serif" font-size="11" text-anchor="end">humfmt  u64, precision=2</text><text x="868" y="366" fill="#c9d1d9" font-family="ui-monospace,monospace" font-size="11">228 ns</text><rect x="330" y="387" width="252" height="22" fill="#388bfd" rx="3"/><text x="322" y="402" fill="#c9d1d9" font-family="ui-sans-serif,system-ui,sans-serif" font-size="11" text-anchor="end">numfmt  u64, short scale, precision=2</text><text x="868" y="402" fill="#c9d1d9" font-family="ui-monospace,monospace" font-size="11">233 ns</text><rect x="330" y="423" width="517" height="22" fill="#388bfd" rx="3"/><text x="322" y="438" fill="#c9d1d9" font-family="ui-sans-serif,system-ui,sans-serif" font-size="11" text-anchor="end">human_format  u64 as f64, precision=2, returns String</text><text x="868" y="438" fill="#c9d1d9" font-family="ui-monospace,monospace" font-size="11">479 ns</text><rect x="330" y="459" width="530" height="22" fill="#388bfd" rx="3"/><text x="322" y="474" fill="#c9d1d9" font-family="ui-sans-serif,system-ui,sans-serif" font-size="11" text-anchor="end">human_format  u64 as f64, precision=1, returns String</text><text x="868" y="474" fill="#c9d1d9" font-family="ui-monospace,monospace" font-size="11">491 ns</text><line x1="20" y1="538" x2="980" y2="538" stroke="#30363d" stroke-width="1" stroke-dasharray="5 4"/><text x="20" y="580" fill="#c9d1d9" font-family="ui-sans-serif,system-ui,sans-serif" font-size="13" font-weight="600">Numbers — allocating, f64 inputs — lower is better</text><line x1="330" y1="602" x2="330" y2="710" stroke="#30363d" stroke-width="1"/><line x1="330" y1="710" x2="860" y2="710" stroke="#30363d" stroke-width="1"/><line x1="330" y1="710" x2="330" y2="714" stroke="#30363d" stroke-width="1"/><text x="330" y="726" fill="#8b949e" font-family="ui-monospace,monospace" font-size="10" text-anchor="start">0</text><line x1="463" y1="602" x2="463" y2="710" stroke="#21262d" stroke-width="1" stroke-dasharray="2 3"/><line x1="463" y1="710" x2="463" y2="714" stroke="#30363d" stroke-width="1"/><text x="463" y="726" fill="#8b949e" font-family="ui-monospace,monospace" font-size="10" text-anchor="middle">116 ns</text><line x1="595" y1="602" x2="595" y2="710" stroke="#21262d" stroke-width="1" stroke-dasharray="2 3"/><line x1="595" y1="710" x2="595" y2="714" stroke="#30363d" stroke-width="1"/><text x="595" y="726" fill="#8b949e" font-family="ui-monospace,monospace" font-size="10" text-anchor="middle">232 ns</text><line x1="728" y1="602" x2="728" y2="710" stroke="#21262d" stroke-width="1" stroke-dasharray="2 3"/><line x1="728" y1="710" x2="728" y2="714" stroke="#30363d" stroke-width="1"/><text x="728" y="726" fill="#8b949e" font-family="ui-monospace,monospace" font-size="10" text-anchor="middle">348 ns</text><line x1="860" y1="602" x2="860" y2="710" stroke="#21262d" stroke-width="1" stroke-dasharray="2 3"/><line x1="860" y1="710" x2="860" y2="714" stroke="#30363d" stroke-width="1"/><text x="860" y="726" fill="#8b949e" font-family="ui-monospace,monospace" font-size="10" text-anchor="end">463 ns</text><rect x="330" y="609" width="268" height="22" fill="#388bfd" rx="3"/><text x="322" y="624" fill="#c9d1d9" font-family="ui-sans-serif,system-ui,sans-serif" font-size="11" text-anchor="end">numfmt  f64, short scale, precision=2</text><text x="868" y="624" fill="#c9d1d9" font-family="ui-monospace,monospace" font-size="11">234 ns</text><rect x="330" y="645" width="444" height="22" fill="#a371f7" rx="3"/><text x="322" y="660" fill="#c9d1d9" font-family="ui-sans-serif,system-ui,sans-serif" font-size="11" text-anchor="end">humfmt  f64, precision=2</text><text x="868" y="660" fill="#c9d1d9" font-family="ui-monospace,monospace" font-size="11">388 ns</text><rect x="330" y="681" width="530" height="22" fill="#388bfd" rx="3"/><text x="322" y="696" fill="#c9d1d9" font-family="ui-sans-serif,system-ui,sans-serif" font-size="11" text-anchor="end">human_format  f64, precision=2, returns String</text><text x="868" y="696" fill="#c9d1d9" font-family="ui-monospace,monospace" font-size="11">463 ns</text><line x1="20" y1="760" x2="980" y2="760" stroke="#30363d" stroke-width="1" stroke-dasharray="5 4"/><text x="20" y="802" fill="#c9d1d9" font-family="ui-sans-serif,system-ui,sans-serif" font-size="13" font-weight="600">Numbers — reused buffer (write!) — lower is better</text><line x1="330" y1="824" x2="330" y2="968" stroke="#30363d" stroke-width="1"/><line x1="330" y1="968" x2="860" y2="968" stroke="#30363d" stroke-width="1"/><line x1="330" y1="968" x2="330" y2="972" stroke="#30363d" stroke-width="1"/><text x="330" y="984" fill="#8b949e" font-family="ui-monospace,monospace" font-size="10" text-anchor="start">0</text><line x1="463" y1="824" x2="463" y2="968" stroke="#21262d" stroke-width="1" stroke-dasharray="2 3"/><line x1="463" y1="968" x2="463" y2="972" stroke="#30363d" stroke-width="1"/><text x="463" y="984" fill="#8b949e" font-family="ui-monospace,monospace" font-size="10" text-anchor="middle">123 ns</text><line x1="595" y1="824" x2="595" y2="968" stroke="#21262d" stroke-width="1" stroke-dasharray="2 3"/><line x1="595" y1="968" x2="595" y2="972" stroke="#30363d" stroke-width="1"/><text x="595" y="984" fill="#8b949e" font-family="ui-monospace,monospace" font-size="10" text-anchor="middle">246 ns</text><line x1="728" y1="824" x2="728" y2="968" stroke="#21262d" stroke-width="1" stroke-dasharray="2 3"/><line x1="728" y1="968" x2="728" y2="972" stroke="#30363d" stroke-width="1"/><text x="728" y="984" fill="#8b949e" font-family="ui-monospace,monospace" font-size="10" text-anchor="middle">369 ns</text><line x1="860" y1="824" x2="860" y2="968" stroke="#21262d" stroke-width="1" stroke-dasharray="2 3"/><line x1="860" y1="968" x2="860" y2="972" stroke="#30363d" stroke-width="1"/><text x="860" y="984" fill="#8b949e" font-family="ui-monospace,monospace" font-size="10" text-anchor="end">492 ns</text><rect x="330" y="831" width="140" height="22" fill="#a371f7" rx="3"/><text x="322" y="846" fill="#c9d1d9" font-family="ui-sans-serif,system-ui,sans-serif" font-size="11" text-anchor="end">humfmt  u64, precision=1, write!</text><text x="868" y="846" fill="#c9d1d9" font-family="ui-monospace,monospace" font-size="11">130 ns</text><rect x="330" y="867" width="159" height="22" fill="#388bfd" rx="3"/><text x="322" y="882" fill="#c9d1d9" font-family="ui-sans-serif,system-ui,sans-serif" font-size="11" text-anchor="end">numfmt  u64, short scale, precision=2, push_str (returns &amp;str)</text><text x="868" y="882" fill="#c9d1d9" font-family="ui-monospace,monospace" font-size="11">148 ns</text><rect x="330" y="903" width="161" height="22" fill="#a371f7" rx="3"/><text x="322" y="918" fill="#c9d1d9" font-family="ui-sans-serif,system-ui,sans-serif" font-size="11" text-anchor="end">humfmt  u64, precision=2, write!</text><text x="868" y="918" fill="#c9d1d9" font-family="ui-monospace,monospace" font-size="11">150 ns</text><rect x="330" y="939" width="530" height="22" fill="#388bfd" rx="3"/><text x="322" y="954" fill="#c9d1d9" font-family="ui-sans-serif,system-ui,sans-serif" font-size="11" text-anchor="end">human_format  u64 as f64, precision=2, push_str (always allocs)</text><text x="868" y="954" fill="#c9d1d9" font-family="ui-monospace,monospace" font-size="11">492 ns</text></svg>