<svg xmlns="http://www.w3.org/2000/svg" width="1000" height="1190" viewBox="0 0 1000 1190"><rect width="100%" height="100%" fill="#0d1117"/><text x="20" y="28" fill="#c9d1d9" font-family="ui-sans-serif,system-ui,sans-serif" font-size="13" font-weight="600">Numbers — allocating, mixed inputs — lower is better</text><line x1="330" y1="50" x2="330" y2="158" stroke="#30363d" stroke-width="1"/><line x1="330" y1="158" x2="860" y2="158" stroke="#30363d" stroke-width="1"/><line x1="330" y1="158" x2="330" y2="162" stroke="#30363d" stroke-width="1"/><text x="330" y="174" fill="#8b949e" font-family="ui-monospace,monospace" font-size="10" text-anchor="start">0</text><line x1="463" y1="50" x2="463" y2="158" stroke="#21262d" stroke-width="1" stroke-dasharray="2 3"/><line x1="463" y1="158" x2="463" y2="162" stroke="#30363d" stroke-width="1"/><text x="463" y="174" fill="#8b949e" font-family="ui-monospace,monospace" font-size="10" text-anchor="middle">64 ns</text><line x1="595" y1="50" x2="595" y2="158" stroke="#21262d" stroke-width="1" stroke-dasharray="2 3"/><line x1="595" y1="158" x2="595" y2="162" stroke="#30363d" stroke-width="1"/><text x="595" y="174" fill="#8b949e" font-family="ui-monospace,monospace" font-size="10" text-anchor="middle">127 ns</text><line x1="728" y1="50" x2="728" y2="158" stroke="#21262d" stroke-width="1" stroke-dasharray="2 3"/><line x1="728" y1="158" x2="728" y2="162" stroke="#30363d" stroke-width="1"/><text x="728" y="174" fill="#8b949e" font-family="ui-monospace,monospace" font-size="10" text-anchor="middle">191 ns</text><line x1="860" y1="50" x2="860" y2="158" stroke="#21262d" stroke-width="1" stroke-dasharray="2 3"/><line x1="860" y1="158" x2="860" y2="162" stroke="#30363d" stroke-width="1"/><text x="860" y="174" fill="#8b949e" font-family="ui-monospace,monospace" font-size="10" text-anchor="end">254 ns</text><rect x="330" y="57" width="172" height="22" fill="#a371f7" rx="3"/><text x="322" y="72" fill="#c9d1d9" font-family="ui-sans-serif,system-ui,sans-serif" font-size="11" text-anchor="end">humfmt  i64, precision=1 (default)</text><text x="868" y="72" fill="#c9d1d9" font-family="ui-monospace,monospace" font-size="11">83 ns</text><rect x="330" y="93" width="183" height="22" fill="#a371f7" rx="3"/><text x="322" y="108" fill="#c9d1d9" font-family="ui-sans-serif,system-ui,sans-serif" font-size="11" text-anchor="end">humfmt  i64, precision=2</text><text x="868" y="108" fill="#c9d1d9" font-family="ui-monospace,monospace" font-size="11">88 ns</text><rect x="330" y="129" width="530" height="22" fill="#388bfd" rx="3"/><text x="322" y="144" fill="#c9d1d9" font-family="ui-sans-serif,system-ui,sans-serif" font-size="11" text-anchor="end">human_format  f64 only, EN only, precision=2, returns String</text><text x="868" y="144" fill="#c9d1d9" font-family="ui-monospace,monospace" font-size="11">254 ns</text><line x1="20" y1="208" x2="980" y2="208" stroke="#30363d" stroke-width="1" stroke-dasharray="5 4"/><text x="20" y="250" fill="#c9d1d9" font-family="ui-sans-serif,system-ui,sans-serif" font-size="13" font-weight="600">Numbers — allocating, u64 inputs (apples-to-apples) — lower is better</text><line x1="330" y1="272" x2="330" y2="416" stroke="#30363d" stroke-width="1"/><line x1="330" y1="416" x2="860" y2="416" stroke="#30363d" stroke-width="1"/><line x1="330" y1="416" x2="330" y2="420" stroke="#30363d" stroke-width="1"/><text x="330" y="432" fill="#8b949e" font-family="ui-monospace,monospace" font-size="10" text-anchor="start">0</text><line x1="463" y1="272" x2="463" y2="416" stroke="#21262d" stroke-width="1" stroke-dasharray="2 3"/><line x1="463" y1="416" x2="463" y2="420" stroke="#30363d" stroke-width="1"/><text x="463" y="432" fill="#8b949e" font-family="ui-monospace,monospace" font-size="10" text-anchor="middle">59 ns</text><line x1="595" y1="272" x2="595" y2="416" stroke="#21262d" stroke-width="1" stroke-dasharray="2 3"/><line x1="595" y1="416" x2="595" y2="420" stroke="#30363d" stroke-width="1"/><text x="595" y="432" fill="#8b949e" font-family="ui-monospace,monospace" font-size="10" text-anchor="middle">119 ns</text><line x1="728" y1="272" x2="728" y2="416" stroke="#21262d" stroke-width="1" stroke-dasharray="2 3"/><line x1="728" y1="416" x2="728" y2="420" stroke="#30363d" stroke-width="1"/><text x="728" y="432" fill="#8b949e" font-family="ui-monospace,monospace" font-size="10" text-anchor="middle">178 ns</text><line x1="860" y1="272" x2="860" y2="416" stroke="#21262d" stroke-width="1" stroke-dasharray="2 3"/><line x1="860" y1="416" x2="860" y2="420" stroke="#30363d" stroke-width="1"/><text x="860" y="432" fill="#8b949e" font-family="ui-monospace,monospace" font-size="10" text-anchor="end">238 ns</text><rect x="330" y="279" width="187" height="22" fill="#a371f7" rx="3"/><text x="322" y="294" fill="#c9d1d9" font-family="ui-sans-serif,system-ui,sans-serif" font-size="11" text-anchor="end">humfmt  u64, precision=1</text><text x="868" y="294" fill="#c9d1d9" font-family="ui-monospace,monospace" font-size="11">84 ns</text><rect x="330" y="315" width="196" height="22" fill="#a371f7" rx="3"/><text x="322" y="330" fill="#c9d1d9" font-family="ui-sans-serif,system-ui,sans-serif" font-size="11" text-anchor="end">humfmt  u64, precision=2</text><text x="868" y="330" fill="#c9d1d9" font-family="ui-monospace,monospace" font-size="11">88 ns</text><rect x="330" y="351" width="495" height="22" fill="#388bfd" rx="3"/><text x="322" y="366" fill="#c9d1d9" font-family="ui-sans-serif,system-ui,sans-serif" font-size="11" text-anchor="end">human_format  u64 as f64, precision=2, returns String</text><text x="868" y="366" fill="#c9d1d9" font-family="ui-monospace,monospace" font-size="11">222 ns</text><rect x="330" y="387" width="530" height="22" fill="#388bfd" rx="3"/><text x="322" y="402" fill="#c9d1d9" font-family="ui-sans-serif,system-ui,sans-serif" font-size="11" text-anchor="end">human_format  u64 as f64, precision=1, returns String</text><text x="868" y="402" fill="#c9d1d9" font-family="ui-monospace,monospace" font-size="11">238 ns</text><line x1="20" y1="466" x2="980" y2="466" stroke="#30363d" stroke-width="1" stroke-dasharray="5 4"/><text x="20" y="508" fill="#c9d1d9" font-family="ui-sans-serif,system-ui,sans-serif" font-size="13" font-weight="600">Numbers — allocating, f64 inputs — lower is better</text><line x1="330" y1="530" x2="330" y2="602" stroke="#30363d" stroke-width="1"/><line x1="330" y1="602" x2="860" y2="602" stroke="#30363d" stroke-width="1"/><line x1="330" y1="602" x2="330" y2="606" stroke="#30363d" stroke-width="1"/><text x="330" y="618" fill="#8b949e" font-family="ui-monospace,monospace" font-size="10" text-anchor="start">0</text><line x1="463" y1="530" x2="463" y2="602" stroke="#21262d" stroke-width="1" stroke-dasharray="2 3"/><line x1="463" y1="602" x2="463" y2="606" stroke="#30363d" stroke-width="1"/><text x="463" y="618" fill="#8b949e" font-family="ui-monospace,monospace" font-size="10" text-anchor="middle">51 ns</text><line x1="595" y1="530" x2="595" y2="602" stroke="#21262d" stroke-width="1" stroke-dasharray="2 3"/><line x1="595" y1="602" x2="595" y2="606" stroke="#30363d" stroke-width="1"/><text x="595" y="618" fill="#8b949e" font-family="ui-monospace,monospace" font-size="10" text-anchor="middle">103 ns</text><line x1="728" y1="530" x2="728" y2="602" stroke="#21262d" stroke-width="1" stroke-dasharray="2 3"/><line x1="728" y1="602" x2="728" y2="606" stroke="#30363d" stroke-width="1"/><text x="728" y="618" fill="#8b949e" font-family="ui-monospace,monospace" font-size="10" text-anchor="middle">154 ns</text><line x1="860" y1="530" x2="860" y2="602" stroke="#21262d" stroke-width="1" stroke-dasharray="2 3"/><line x1="860" y1="602" x2="860" y2="606" stroke="#30363d" stroke-width="1"/><text x="860" y="618" fill="#8b949e" font-family="ui-monospace,monospace" font-size="10" text-anchor="end">206 ns</text><rect x="330" y="537" width="510" height="22" fill="#388bfd" rx="3"/><text x="322" y="552" fill="#c9d1d9" font-family="ui-sans-serif,system-ui,sans-serif" font-size="11" text-anchor="end">human_format  f64, precision=2, returns String</text><text x="868" y="552" fill="#c9d1d9" font-family="ui-monospace,monospace" font-size="11">198 ns</text><rect x="330" y="573" width="530" height="22" fill="#a371f7" rx="3"/><text x="322" y="588" fill="#c9d1d9" font-family="ui-sans-serif,system-ui,sans-serif" font-size="11" text-anchor="end">humfmt  f64, precision=2</text><text x="868" y="588" fill="#c9d1d9" font-family="ui-monospace,monospace" font-size="11">206 ns</text><line x1="20" y1="652" x2="980" y2="652" stroke="#30363d" stroke-width="1" stroke-dasharray="5 4"/><text x="20" y="694" fill="#c9d1d9" font-family="ui-sans-serif,system-ui,sans-serif" font-size="13" font-weight="600">Numbers — reused buffer (write!) — lower is better</text><line x1="330" y1="716" x2="330" y2="824" stroke="#30363d" stroke-width="1"/><line x1="330" y1="824" x2="860" y2="824" stroke="#30363d" stroke-width="1"/><line x1="330" y1="824" x2="330" y2="828" stroke="#30363d" stroke-width="1"/><text x="330" y="840" fill="#8b949e" font-family="ui-monospace,monospace" font-size="10" text-anchor="start">0</text><line x1="463" y1="716" x2="463" y2="824" stroke="#21262d" stroke-width="1" stroke-dasharray="2 3"/><line x1="463" y1="824" x2="463" y2="828" stroke="#30363d" stroke-width="1"/><text x="463" y="840" fill="#8b949e" font-family="ui-monospace,monospace" font-size="10" text-anchor="middle">55 ns</text><line x1="595" y1="716" x2="595" y2="824" stroke="#21262d" stroke-width="1" stroke-dasharray="2 3"/><line x1="595" y1="824" x2="595" y2="828" stroke="#30363d" stroke-width="1"/><text x="595" y="840" fill="#8b949e" font-family="ui-monospace,monospace" font-size="10" text-anchor="middle">110 ns</text><line x1="728" y1="716" x2="728" y2="824" stroke="#21262d" stroke-width="1" stroke-dasharray="2 3"/><line x1="728" y1="824" x2="728" y2="828" stroke="#30363d" stroke-width="1"/><text x="728" y="840" fill="#8b949e" font-family="ui-monospace,monospace" font-size="10" text-anchor="middle">166 ns</text><line x1="860" y1="716" x2="860" y2="824" stroke="#21262d" stroke-width="1" stroke-dasharray="2 3"/><line x1="860" y1="824" x2="860" y2="828" stroke="#30363d" stroke-width="1"/><text x="860" y="840" fill="#8b949e" font-family="ui-monospace,monospace" font-size="10" text-anchor="end">221 ns</text><rect x="330" y="723" width="174" height="22" fill="#a371f7" rx="3"/><text x="322" y="738" fill="#c9d1d9" font-family="ui-sans-serif,system-ui,sans-serif" font-size="11" text-anchor="end">humfmt  u64, precision=1, write!</text><text x="868" y="738" fill="#c9d1d9" font-family="ui-monospace,monospace" font-size="11">73 ns</text><rect x="330" y="759" width="186" height="22" fill="#a371f7" rx="3"/><text x="322" y="774" fill="#c9d1d9" font-family="ui-sans-serif,system-ui,sans-serif" font-size="11" text-anchor="end">humfmt  u64, precision=2, write!</text><text x="868" y="774" fill="#c9d1d9" font-family="ui-monospace,monospace" font-size="11">77 ns</text><rect x="330" y="795" width="530" height="22" fill="#388bfd" rx="3"/><text x="322" y="810" fill="#c9d1d9" font-family="ui-sans-serif,system-ui,sans-serif" font-size="11" text-anchor="end">human_format  u64 as f64, precision=2, push_str (always allocs)</text><text x="868" y="810" fill="#c9d1d9" font-family="ui-monospace,monospace" font-size="11">221 ns</text><line x1="20" y1="874" x2="980" y2="874" stroke="#30363d" stroke-width="1" stroke-dasharray="5 4"/><text x="20" y="916" fill="#c9d1d9" font-family="ui-sans-serif,system-ui,sans-serif" font-size="13" font-weight="600">Numbers — locale overhead — lower is better</text><line x1="330" y1="938" x2="330" y2="1154" stroke="#30363d" stroke-width="1"/><line x1="330" y1="1154" x2="860" y2="1154" stroke="#30363d" stroke-width="1"/><line x1="330" y1="1154" x2="330" y2="1158" stroke="#30363d" stroke-width="1"/><text x="330" y="1170" fill="#8b949e" font-family="ui-monospace,monospace" font-size="10" text-anchor="start">0</text><line x1="463" y1="938" x2="463" y2="1154" stroke="#21262d" stroke-width="1" stroke-dasharray="2 3"/><line x1="463" y1="1154" x2="463" y2="1158" stroke="#30363d" stroke-width="1"/><text x="463" y="1170" fill="#8b949e" font-family="ui-monospace,monospace" font-size="10" text-anchor="middle">27 ns</text><line x1="595" y1="938" x2="595" y2="1154" stroke="#21262d" stroke-width="1" stroke-dasharray="2 3"/><line x1="595" y1="1154" x2="595" y2="1158" stroke="#30363d" stroke-width="1"/><text x="595" y="1170" fill="#8b949e" font-family="ui-monospace,monospace" font-size="10" text-anchor="middle">54 ns</text><line x1="728" y1="938" x2="728" y2="1154" stroke="#21262d" stroke-width="1" stroke-dasharray="2 3"/><line x1="728" y1="1154" x2="728" y2="1158" stroke="#30363d" stroke-width="1"/><text x="728" y="1170" fill="#8b949e" font-family="ui-monospace,monospace" font-size="10" text-anchor="middle">81 ns</text><line x1="860" y1="938" x2="860" y2="1154" stroke="#21262d" stroke-width="1" stroke-dasharray="2 3"/><line x1="860" y1="1154" x2="860" y2="1158" stroke="#30363d" stroke-width="1"/><text x="860" y="1170" fill="#8b949e" font-family="ui-monospace,monospace" font-size="10" text-anchor="end">107 ns</text><rect x="330" y="945" width="413" height="22" fill="#a371f7" rx="3"/><text x="322" y="960" fill="#c9d1d9" font-family="ui-sans-serif,system-ui,sans-serif" font-size="11" text-anchor="end">humfmt  English, short</text><text x="868" y="960" fill="#c9d1d9" font-family="ui-monospace,monospace" font-size="11">84 ns</text><rect x="330" y="981" width="451" height="22" fill="#a371f7" rx="3"/><text x="322" y="996" fill="#c9d1d9" font-family="ui-sans-serif,system-ui,sans-serif" font-size="11" text-anchor="end">humfmt  Polish, short</text><text x="868" y="996" fill="#c9d1d9" font-family="ui-monospace,monospace" font-size="11">91 ns</text><rect x="330" y="1017" width="453" height="22" fill="#a371f7" rx="3"/><text x="322" y="1032" fill="#c9d1d9" font-family="ui-sans-serif,system-ui,sans-serif" font-size="11" text-anchor="end">humfmt  English, long</text><text x="868" y="1032" fill="#c9d1d9" font-family="ui-monospace,monospace" font-size="11">92 ns</text><rect x="330" y="1053" width="481" height="22" fill="#a371f7" rx="3"/><text x="322" y="1068" fill="#c9d1d9" font-family="ui-sans-serif,system-ui,sans-serif" font-size="11" text-anchor="end">humfmt  Russian, short</text><text x="868" y="1068" fill="#c9d1d9" font-family="ui-monospace,monospace" font-size="11">98 ns</text><rect x="330" y="1089" width="520" height="22" fill="#a371f7" rx="3"/><text x="322" y="1104" fill="#c9d1d9" font-family="ui-sans-serif,system-ui,sans-serif" font-size="11" text-anchor="end">humfmt  Polish, long (plural selection)</text><text x="868" y="1104" fill="#c9d1d9" font-family="ui-monospace,monospace" font-size="11">105 ns</text><rect x="330" y="1125" width="530" height="22" fill="#a371f7" rx="3"/><text x="322" y="1140" fill="#c9d1d9" font-family="ui-sans-serif,system-ui,sans-serif" font-size="11" text-anchor="end">humfmt  Russian, long (plural selection)</text><text x="868" y="1140" fill="#c9d1d9" font-family="ui-monospace,monospace" font-size="11">107 ns</text></svg>