<svg xmlns="http://www.w3.org/2000/svg" width="1000" height="2066" viewBox="0 0 1000 2066"><rect width="100%" height="100%" fill="#0d1117"/><text x="20" y="28" fill="#c9d1d9" font-family="ui-sans-serif,system-ui,sans-serif" font-size="13" font-weight="600">Numbers — allocating, mixed inputs — lower is better</text><line x1="330" y1="50" x2="330" y2="194" stroke="#30363d" stroke-width="1"/><line x1="330" y1="194" x2="860" y2="194" stroke="#30363d" stroke-width="1"/><line x1="330" y1="194" x2="330" y2="198" stroke="#30363d" stroke-width="1"/><text x="330" y="210" fill="#8b949e" font-family="ui-monospace,monospace" font-size="10" text-anchor="start">0</text><line x1="463" y1="50" x2="463" y2="194" stroke="#21262d" stroke-width="1" stroke-dasharray="2 3"/><line x1="463" y1="194" x2="463" y2="198" stroke="#30363d" stroke-width="1"/><text x="463" y="210" fill="#8b949e" font-family="ui-monospace,monospace" font-size="10" text-anchor="middle">63 ns</text><line x1="595" y1="50" x2="595" y2="194" stroke="#21262d" stroke-width="1" stroke-dasharray="2 3"/><line x1="595" y1="194" x2="595" y2="198" stroke="#30363d" stroke-width="1"/><text x="595" y="210" fill="#8b949e" font-family="ui-monospace,monospace" font-size="10" text-anchor="middle">125 ns</text><line x1="728" y1="50" x2="728" y2="194" stroke="#21262d" stroke-width="1" stroke-dasharray="2 3"/><line x1="728" y1="194" x2="728" y2="198" stroke="#30363d" stroke-width="1"/><text x="728" y="210" fill="#8b949e" font-family="ui-monospace,monospace" font-size="10" text-anchor="middle">188 ns</text><line x1="860" y1="50" x2="860" y2="194" stroke="#21262d" stroke-width="1" stroke-dasharray="2 3"/><line x1="860" y1="194" x2="860" y2="198" stroke="#30363d" stroke-width="1"/><text x="860" y="210" fill="#8b949e" font-family="ui-monospace,monospace" font-size="10" text-anchor="end">250 ns</text><rect x="330" y="57" width="166" height="22" fill="#388bfd" rx="3"/><text x="322" y="72" fill="#c9d1d9" font-family="ui-sans-serif,system-ui,sans-serif" font-size="11" text-anchor="end">numfmt  i64, short scale, precision=2</text><text x="868" y="72" fill="#c9d1d9" font-family="ui-monospace,monospace" font-size="11">78 ns</text><rect x="330" y="93" width="175" height="22" fill="#a371f7" rx="3"/><text x="322" y="108" fill="#c9d1d9" font-family="ui-sans-serif,system-ui,sans-serif" font-size="11" text-anchor="end">humfmt  i64, precision=1 (default)</text><text x="868" y="108" fill="#c9d1d9" font-family="ui-monospace,monospace" font-size="11">82 ns</text><rect x="330" y="129" width="184" height="22" fill="#a371f7" rx="3"/><text x="322" y="144" fill="#c9d1d9" font-family="ui-sans-serif,system-ui,sans-serif" font-size="11" text-anchor="end">humfmt  i64, precision=2</text><text x="868" y="144" fill="#c9d1d9" font-family="ui-monospace,monospace" font-size="11">87 ns</text><rect x="330" y="165" width="530" height="22" fill="#388bfd" rx="3"/><text x="322" y="180" fill="#c9d1d9" font-family="ui-sans-serif,system-ui,sans-serif" font-size="11" text-anchor="end">human_format  f64 only, precision=2, returns String</text><text x="868" y="180" fill="#c9d1d9" font-family="ui-monospace,monospace" font-size="11">250 ns</text><line x1="20" y1="244" x2="980" y2="244" stroke="#30363d" stroke-width="1" stroke-dasharray="5 4"/><text x="20" y="286" fill="#c9d1d9" font-family="ui-sans-serif,system-ui,sans-serif" font-size="13" font-weight="600">Numbers — allocating, u64 inputs (apples-to-apples) — lower is better</text><line x1="330" y1="308" x2="330" y2="488" stroke="#30363d" stroke-width="1"/><line x1="330" y1="488" x2="860" y2="488" stroke="#30363d" stroke-width="1"/><line x1="330" y1="488" x2="330" y2="492" stroke="#30363d" stroke-width="1"/><text x="330" y="504" fill="#8b949e" font-family="ui-monospace,monospace" font-size="10" text-anchor="start">0</text><line x1="463" y1="308" x2="463" y2="488" stroke="#21262d" stroke-width="1" stroke-dasharray="2 3"/><line x1="463" y1="488" x2="463" y2="492" stroke="#30363d" stroke-width="1"/><text x="463" y="504" fill="#8b949e" font-family="ui-monospace,monospace" font-size="10" text-anchor="middle">58 ns</text><line x1="595" y1="308" x2="595" y2="488" stroke="#21262d" stroke-width="1" stroke-dasharray="2 3"/><line x1="595" y1="488" x2="595" y2="492" stroke="#30363d" stroke-width="1"/><text x="595" y="504" fill="#8b949e" font-family="ui-monospace,monospace" font-size="10" text-anchor="middle">117 ns</text><line x1="728" y1="308" x2="728" y2="488" stroke="#21262d" stroke-width="1" stroke-dasharray="2 3"/><line x1="728" y1="488" x2="728" y2="492" stroke="#30363d" stroke-width="1"/><text x="728" y="504" fill="#8b949e" font-family="ui-monospace,monospace" font-size="10" text-anchor="middle">175 ns</text><line x1="860" y1="308" x2="860" y2="488" stroke="#21262d" stroke-width="1" stroke-dasharray="2 3"/><line x1="860" y1="488" x2="860" y2="492" stroke="#30363d" stroke-width="1"/><text x="860" y="504" fill="#8b949e" font-family="ui-monospace,monospace" font-size="10" text-anchor="end">234 ns</text><rect x="330" y="315" width="181" height="22" fill="#388bfd" rx="3"/><text x="322" y="330" fill="#c9d1d9" font-family="ui-sans-serif,system-ui,sans-serif" font-size="11" text-anchor="end">numfmt  u64, short scale, precision=2</text><text x="868" y="330" fill="#c9d1d9" font-family="ui-monospace,monospace" font-size="11">80 ns</text><rect x="330" y="351" width="189" height="22" fill="#a371f7" rx="3"/><text x="322" y="366" fill="#c9d1d9" font-family="ui-sans-serif,system-ui,sans-serif" font-size="11" text-anchor="end">humfmt  u64, precision=1</text><text x="868" y="366" fill="#c9d1d9" font-family="ui-monospace,monospace" font-size="11">83 ns</text><rect x="330" y="387" width="198" height="22" fill="#a371f7" rx="3"/><text x="322" y="402" fill="#c9d1d9" font-family="ui-sans-serif,system-ui,sans-serif" font-size="11" text-anchor="end">humfmt  u64, precision=2</text><text x="868" y="402" fill="#c9d1d9" font-family="ui-monospace,monospace" font-size="11">87 ns</text><rect x="330" y="423" width="490" height="22" fill="#388bfd" rx="3"/><text x="322" y="438" fill="#c9d1d9" font-family="ui-sans-serif,system-ui,sans-serif" font-size="11" text-anchor="end">human_format  u64 as f64, precision=2, returns String</text><text x="868" y="438" fill="#c9d1d9" font-family="ui-monospace,monospace" font-size="11">216 ns</text><rect x="330" y="459" width="530" height="22" fill="#388bfd" rx="3"/><text x="322" y="474" fill="#c9d1d9" font-family="ui-sans-serif,system-ui,sans-serif" font-size="11" text-anchor="end">human_format  u64 as f64, precision=1, returns String</text><text x="868" y="474" fill="#c9d1d9" font-family="ui-monospace,monospace" font-size="11">234 ns</text><line x1="20" y1="538" x2="980" y2="538" stroke="#30363d" stroke-width="1" stroke-dasharray="5 4"/><text x="20" y="580" fill="#c9d1d9" font-family="ui-sans-serif,system-ui,sans-serif" font-size="13" font-weight="600">Numbers — allocating, f64 inputs — lower is better</text><line x1="330" y1="602" x2="330" y2="710" stroke="#30363d" stroke-width="1"/><line x1="330" y1="710" x2="860" y2="710" stroke="#30363d" stroke-width="1"/><line x1="330" y1="710" x2="330" y2="714" stroke="#30363d" stroke-width="1"/><text x="330" y="726" fill="#8b949e" font-family="ui-monospace,monospace" font-size="10" text-anchor="start">0</text><line x1="463" y1="602" x2="463" y2="710" stroke="#21262d" stroke-width="1" stroke-dasharray="2 3"/><line x1="463" y1="710" x2="463" y2="714" stroke="#30363d" stroke-width="1"/><text x="463" y="726" fill="#8b949e" font-family="ui-monospace,monospace" font-size="10" text-anchor="middle">49 ns</text><line x1="595" y1="602" x2="595" y2="710" stroke="#21262d" stroke-width="1" stroke-dasharray="2 3"/><line x1="595" y1="710" x2="595" y2="714" stroke="#30363d" stroke-width="1"/><text x="595" y="726" fill="#8b949e" font-family="ui-monospace,monospace" font-size="10" text-anchor="middle">97 ns</text><line x1="728" y1="602" x2="728" y2="710" stroke="#21262d" stroke-width="1" stroke-dasharray="2 3"/><line x1="728" y1="710" x2="728" y2="714" stroke="#30363d" stroke-width="1"/><text x="728" y="726" fill="#8b949e" font-family="ui-monospace,monospace" font-size="10" text-anchor="middle">146 ns</text><line x1="860" y1="602" x2="860" y2="710" stroke="#21262d" stroke-width="1" stroke-dasharray="2 3"/><line x1="860" y1="710" x2="860" y2="714" stroke="#30363d" stroke-width="1"/><text x="860" y="726" fill="#8b949e" font-family="ui-monospace,monospace" font-size="10" text-anchor="end">194 ns</text><rect x="330" y="609" width="210" height="22" fill="#388bfd" rx="3"/><text x="322" y="624" fill="#c9d1d9" font-family="ui-sans-serif,system-ui,sans-serif" font-size="11" text-anchor="end">numfmt  f64, short scale, precision=2</text><text x="868" y="624" fill="#c9d1d9" font-family="ui-monospace,monospace" font-size="11">77 ns</text><rect x="330" y="645" width="526" height="22" fill="#388bfd" rx="3"/><text x="322" y="660" fill="#c9d1d9" font-family="ui-sans-serif,system-ui,sans-serif" font-size="11" text-anchor="end">human_format  f64, precision=2, returns String</text><text x="868" y="660" fill="#c9d1d9" font-family="ui-monospace,monospace" font-size="11">193 ns</text><rect x="330" y="681" width="530" height="22" fill="#a371f7" rx="3"/><text x="322" y="696" fill="#c9d1d9" font-family="ui-sans-serif,system-ui,sans-serif" font-size="11" text-anchor="end">humfmt  f64, precision=2</text><text x="868" y="696" fill="#c9d1d9" font-family="ui-monospace,monospace" font-size="11">194 ns</text><line x1="20" y1="760" x2="980" y2="760" stroke="#30363d" stroke-width="1" stroke-dasharray="5 4"/><text x="20" y="802" fill="#c9d1d9" font-family="ui-sans-serif,system-ui,sans-serif" font-size="13" font-weight="600">Numbers — humfmt option coverage (allocating) — lower is better</text><line x1="330" y1="824" x2="330" y2="1148" stroke="#30363d" stroke-width="1"/><line x1="330" y1="1148" x2="860" y2="1148" stroke="#30363d" stroke-width="1"/><line x1="330" y1="1148" x2="330" y2="1152" stroke="#30363d" stroke-width="1"/><text x="330" y="1164" fill="#8b949e" font-family="ui-monospace,monospace" font-size="10" text-anchor="start">0</text><line x1="463" y1="824" x2="463" y2="1148" stroke="#21262d" stroke-width="1" stroke-dasharray="2 3"/><line x1="463" y1="1148" x2="463" y2="1152" stroke="#30363d" stroke-width="1"/><text x="463" y="1164" fill="#8b949e" font-family="ui-monospace,monospace" font-size="10" text-anchor="middle">62 ns</text><line x1="595" y1="824" x2="595" y2="1148" stroke="#21262d" stroke-width="1" stroke-dasharray="2 3"/><line x1="595" y1="1148" x2="595" y2="1152" stroke="#30363d" stroke-width="1"/><text x="595" y="1164" fill="#8b949e" font-family="ui-monospace,monospace" font-size="10" text-anchor="middle">124 ns</text><line x1="728" y1="824" x2="728" y2="1148" stroke="#21262d" stroke-width="1" stroke-dasharray="2 3"/><line x1="728" y1="1148" x2="728" y2="1152" stroke="#30363d" stroke-width="1"/><text x="728" y="1164" fill="#8b949e" font-family="ui-monospace,monospace" font-size="10" text-anchor="middle">186 ns</text><line x1="860" y1="824" x2="860" y2="1148" stroke="#21262d" stroke-width="1" stroke-dasharray="2 3"/><line x1="860" y1="1148" x2="860" y2="1152" stroke="#30363d" stroke-width="1"/><text x="860" y="1164" fill="#8b949e" font-family="ui-monospace,monospace" font-size="10" text-anchor="end">248 ns</text><rect x="330" y="831" width="137" height="22" fill="#a371f7" rx="3"/><text x="322" y="846" fill="#c9d1d9" font-family="ui-sans-serif,system-ui,sans-serif" font-size="11" text-anchor="end">humfmt  i64, precision=0, rounding=floor</text><text x="868" y="846" fill="#c9d1d9" font-family="ui-monospace,monospace" font-size="11">64 ns</text><rect x="330" y="867" width="137" height="22" fill="#a371f7" rx="3"/><text x="322" y="882" fill="#c9d1d9" font-family="ui-sans-serif,system-ui,sans-serif" font-size="11" text-anchor="end">humfmt  i64, precision=0, rounding=ceil</text><text x="868" y="882" fill="#c9d1d9" font-family="ui-monospace,monospace" font-size="11">64 ns</text><rect x="330" y="903" width="174" height="22" fill="#a371f7" rx="3"/><text x="322" y="918" fill="#c9d1d9" font-family="ui-sans-serif,system-ui,sans-serif" font-size="11" text-anchor="end">humfmt  i64, force_sign</text><text x="868" y="918" fill="#c9d1d9" font-family="ui-monospace,monospace" font-size="11">81 ns</text><rect x="330" y="939" width="189" height="22" fill="#a371f7" rx="3"/><text x="322" y="954" fill="#c9d1d9" font-family="ui-sans-serif,system-ui,sans-serif" font-size="11" text-anchor="end">humfmt  i64, significant_digits=3</text><text x="868" y="954" fill="#c9d1d9" font-family="ui-monospace,monospace" font-size="11">89 ns</text><rect x="330" y="975" width="203" height="22" fill="#a371f7" rx="3"/><text x="322" y="990" fill="#c9d1d9" font-family="ui-sans-serif,system-ui,sans-serif" font-size="11" text-anchor="end">humfmt  i64, long units, precision=2</text><text x="868" y="990" fill="#c9d1d9" font-family="ui-monospace,monospace" font-size="11">95 ns</text><rect x="330" y="1011" width="228" height="22" fill="#a371f7" rx="3"/><text x="322" y="1026" fill="#c9d1d9" font-family="ui-sans-serif,system-ui,sans-serif" font-size="11" text-anchor="end">humfmt  i64, compact=false + separators</text><text x="868" y="1026" fill="#c9d1d9" font-family="ui-monospace,monospace" font-size="11">107 ns</text><rect x="330" y="1047" width="228" height="22" fill="#a371f7" rx="3"/><text x="322" y="1062" fill="#c9d1d9" font-family="ui-sans-serif,system-ui,sans-serif" font-size="11" text-anchor="end">humfmt  i64, custom decimal/group separators</text><text x="868" y="1062" fill="#c9d1d9" font-family="ui-monospace,monospace" font-size="11">107 ns</text><rect x="330" y="1083" width="472" height="22" fill="#a371f7" rx="3"/><text x="322" y="1098" fill="#c9d1d9" font-family="ui-sans-serif,system-ui,sans-serif" font-size="11" text-anchor="end">humfmt  f64, compact=false + separators</text><text x="868" y="1098" fill="#c9d1d9" font-family="ui-monospace,monospace" font-size="11">221 ns</text><rect x="330" y="1119" width="530" height="22" fill="#a371f7" rx="3"/><text x="322" y="1134" fill="#c9d1d9" font-family="ui-sans-serif,system-ui,sans-serif" font-size="11" text-anchor="end">humfmt  f64, significant_digits=3</text><text x="868" y="1134" fill="#c9d1d9" font-family="ui-monospace,monospace" font-size="11">248 ns</text><line x1="20" y1="1198" x2="980" y2="1198" stroke="#30363d" stroke-width="1" stroke-dasharray="5 4"/><text x="20" y="1240" fill="#c9d1d9" font-family="ui-sans-serif,system-ui,sans-serif" font-size="13" font-weight="600">Numbers — extended u128 range (humfmt only) — lower is better</text><line x1="330" y1="1262" x2="330" y2="1478" stroke="#30363d" stroke-width="1"/><line x1="330" y1="1478" x2="860" y2="1478" stroke="#30363d" stroke-width="1"/><line x1="330" y1="1478" x2="330" y2="1482" stroke="#30363d" stroke-width="1"/><text x="330" y="1494" fill="#8b949e" font-family="ui-monospace,monospace" font-size="10" text-anchor="start">0</text><line x1="463" y1="1262" x2="463" y2="1478" stroke="#21262d" stroke-width="1" stroke-dasharray="2 3"/><line x1="463" y1="1478" x2="463" y2="1482" stroke="#30363d" stroke-width="1"/><text x="463" y="1494" fill="#8b949e" font-family="ui-monospace,monospace" font-size="10" text-anchor="middle">102 ns</text><line x1="595" y1="1262" x2="595" y2="1478" stroke="#21262d" stroke-width="1" stroke-dasharray="2 3"/><line x1="595" y1="1478" x2="595" y2="1482" stroke="#30363d" stroke-width="1"/><text x="595" y="1494" fill="#8b949e" font-family="ui-monospace,monospace" font-size="10" text-anchor="middle">205 ns</text><line x1="728" y1="1262" x2="728" y2="1478" stroke="#21262d" stroke-width="1" stroke-dasharray="2 3"/><line x1="728" y1="1478" x2="728" y2="1482" stroke="#30363d" stroke-width="1"/><text x="728" y="1494" fill="#8b949e" font-family="ui-monospace,monospace" font-size="10" text-anchor="middle">307 ns</text><line x1="860" y1="1262" x2="860" y2="1478" stroke="#21262d" stroke-width="1" stroke-dasharray="2 3"/><line x1="860" y1="1478" x2="860" y2="1482" stroke="#30363d" stroke-width="1"/><text x="860" y="1494" fill="#8b949e" font-family="ui-monospace,monospace" font-size="10" text-anchor="end">409 ns</text><rect x="330" y="1269" width="134" height="22" fill="#a371f7" rx="3"/><text x="322" y="1284" fill="#c9d1d9" font-family="ui-sans-serif,system-ui,sans-serif" font-size="11" text-anchor="end">humfmt  u128 extreme, default</text><text x="868" y="1284" fill="#c9d1d9" font-family="ui-monospace,monospace" font-size="11">104 ns</text><rect x="330" y="1305" width="147" height="22" fill="#a371f7" rx="3"/><text x="322" y="1320" fill="#c9d1d9" font-family="ui-sans-serif,system-ui,sans-serif" font-size="11" text-anchor="end">humfmt  u128 extreme, significant_digits=3</text><text x="868" y="1320" fill="#c9d1d9" font-family="ui-monospace,monospace" font-size="11">114 ns</text><rect x="330" y="1341" width="148" height="22" fill="#a371f7" rx="3"/><text x="322" y="1356" fill="#c9d1d9" font-family="ui-sans-serif,system-ui,sans-serif" font-size="11" text-anchor="end">humfmt  u128 extreme, precision=2</text><text x="868" y="1356" fill="#c9d1d9" font-family="ui-monospace,monospace" font-size="11">114 ns</text><rect x="330" y="1377" width="203" height="22" fill="#a371f7" rx="3"/><text x="322" y="1392" fill="#c9d1d9" font-family="ui-sans-serif,system-ui,sans-serif" font-size="11" text-anchor="end">humfmt  u128 extreme, significant_digits=6</text><text x="868" y="1392" fill="#c9d1d9" font-family="ui-monospace,monospace" font-size="11">157 ns</text><rect x="330" y="1413" width="343" height="22" fill="#a371f7" rx="3"/><text x="322" y="1428" fill="#c9d1d9" font-family="ui-sans-serif,system-ui,sans-serif" font-size="11" text-anchor="end">humfmt  u128 extreme, compact=false</text><text x="868" y="1428" fill="#c9d1d9" font-family="ui-monospace,monospace" font-size="11">265 ns</text><rect x="330" y="1449" width="530" height="22" fill="#a371f7" rx="3"/><text x="322" y="1464" fill="#c9d1d9" font-family="ui-sans-serif,system-ui,sans-serif" font-size="11" text-anchor="end">humfmt  u128 extreme, compact=false + separators</text><text x="868" y="1464" fill="#c9d1d9" font-family="ui-monospace,monospace" font-size="11">409 ns</text><line x1="20" y1="1528" x2="980" y2="1528" stroke="#30363d" stroke-width="1" stroke-dasharray="5 4"/><text x="20" y="1570" fill="#c9d1d9" font-family="ui-sans-serif,system-ui,sans-serif" font-size="13" font-weight="600">Numbers — reused buffer (write!) — lower is better</text><line x1="330" y1="1592" x2="330" y2="1736" stroke="#30363d" stroke-width="1"/><line x1="330" y1="1736" x2="860" y2="1736" stroke="#30363d" stroke-width="1"/><line x1="330" y1="1736" x2="330" y2="1740" stroke="#30363d" stroke-width="1"/><text x="330" y="1752" fill="#8b949e" font-family="ui-monospace,monospace" font-size="10" text-anchor="start">0</text><line x1="463" y1="1592" x2="463" y2="1736" stroke="#21262d" stroke-width="1" stroke-dasharray="2 3"/><line x1="463" y1="1736" x2="463" y2="1740" stroke="#30363d" stroke-width="1"/><text x="463" y="1752" fill="#8b949e" font-family="ui-monospace,monospace" font-size="10" text-anchor="middle">55 ns</text><line x1="595" y1="1592" x2="595" y2="1736" stroke="#21262d" stroke-width="1" stroke-dasharray="2 3"/><line x1="595" y1="1736" x2="595" y2="1740" stroke="#30363d" stroke-width="1"/><text x="595" y="1752" fill="#8b949e" font-family="ui-monospace,monospace" font-size="10" text-anchor="middle">111 ns</text><line x1="728" y1="1592" x2="728" y2="1736" stroke="#21262d" stroke-width="1" stroke-dasharray="2 3"/><line x1="728" y1="1736" x2="728" y2="1740" stroke="#30363d" stroke-width="1"/><text x="728" y="1752" fill="#8b949e" font-family="ui-monospace,monospace" font-size="10" text-anchor="middle">166 ns</text><line x1="860" y1="1592" x2="860" y2="1736" stroke="#21262d" stroke-width="1" stroke-dasharray="2 3"/><line x1="860" y1="1736" x2="860" y2="1740" stroke="#30363d" stroke-width="1"/><text x="860" y="1752" fill="#8b949e" font-family="ui-monospace,monospace" font-size="10" text-anchor="end">221 ns</text><rect x="330" y="1599" width="156" height="22" fill="#388bfd" rx="3"/><text x="322" y="1614" fill="#c9d1d9" font-family="ui-sans-serif,system-ui,sans-serif" font-size="11" text-anchor="end">numfmt  u64, short scale, precision=2, push_str (returns &amp;str)</text><text x="868" y="1614" fill="#c9d1d9" font-family="ui-monospace,monospace" font-size="11">65 ns</text><rect x="330" y="1635" width="168" height="22" fill="#a371f7" rx="3"/><text x="322" y="1650" fill="#c9d1d9" font-family="ui-sans-serif,system-ui,sans-serif" font-size="11" text-anchor="end">humfmt  u64, precision=1, write!</text><text x="868" y="1650" fill="#c9d1d9" font-family="ui-monospace,monospace" font-size="11">70 ns</text><rect x="330" y="1671" width="179" height="22" fill="#a371f7" rx="3"/><text x="322" y="1686" fill="#c9d1d9" font-family="ui-sans-serif,system-ui,sans-serif" font-size="11" text-anchor="end">humfmt  u64, precision=2, write!</text><text x="868" y="1686" fill="#c9d1d9" font-family="ui-monospace,monospace" font-size="11">75 ns</text><rect x="330" y="1707" width="530" height="22" fill="#388bfd" rx="3"/><text x="322" y="1722" fill="#c9d1d9" font-family="ui-sans-serif,system-ui,sans-serif" font-size="11" text-anchor="end">human_format  u64 as f64, precision=2, push_str (always allocs)</text><text x="868" y="1722" fill="#c9d1d9" font-family="ui-monospace,monospace" font-size="11">221 ns</text><line x1="20" y1="1786" x2="980" y2="1786" stroke="#30363d" stroke-width="1" stroke-dasharray="5 4"/><text x="20" y="1828" fill="#c9d1d9" font-family="ui-sans-serif,system-ui,sans-serif" font-size="13" font-weight="600">Numbers — reused buffer, humfmt option coverage — lower is better</text><line x1="330" y1="1850" x2="330" y2="2030" stroke="#30363d" stroke-width="1"/><line x1="330" y1="2030" x2="860" y2="2030" stroke="#30363d" stroke-width="1"/><line x1="330" y1="2030" x2="330" y2="2034" stroke="#30363d" stroke-width="1"/><text x="330" y="2046" fill="#8b949e" font-family="ui-monospace,monospace" font-size="10" text-anchor="start">0</text><line x1="463" y1="1850" x2="463" y2="2030" stroke="#21262d" stroke-width="1" stroke-dasharray="2 3"/><line x1="463" y1="2030" x2="463" y2="2034" stroke="#30363d" stroke-width="1"/><text x="463" y="2046" fill="#8b949e" font-family="ui-monospace,monospace" font-size="10" text-anchor="middle">44 ns</text><line x1="595" y1="1850" x2="595" y2="2030" stroke="#21262d" stroke-width="1" stroke-dasharray="2 3"/><line x1="595" y1="2030" x2="595" y2="2034" stroke="#30363d" stroke-width="1"/><text x="595" y="2046" fill="#8b949e" font-family="ui-monospace,monospace" font-size="10" text-anchor="middle">88 ns</text><line x1="728" y1="1850" x2="728" y2="2030" stroke="#21262d" stroke-width="1" stroke-dasharray="2 3"/><line x1="728" y1="2030" x2="728" y2="2034" stroke="#30363d" stroke-width="1"/><text x="728" y="2046" fill="#8b949e" font-family="ui-monospace,monospace" font-size="10" text-anchor="middle">133 ns</text><line x1="860" y1="1850" x2="860" y2="2030" stroke="#21262d" stroke-width="1" stroke-dasharray="2 3"/><line x1="860" y1="2030" x2="860" y2="2034" stroke="#30363d" stroke-width="1"/><text x="860" y="2046" fill="#8b949e" font-family="ui-monospace,monospace" font-size="10" text-anchor="end">177 ns</text><rect x="330" y="1857" width="227" height="22" fill="#a371f7" rx="3"/><text x="322" y="1872" fill="#c9d1d9" font-family="ui-sans-serif,system-ui,sans-serif" font-size="11" text-anchor="end">humfmt  i64, significant_digits=3, write!</text><text x="868" y="1872" fill="#c9d1d9" font-family="ui-monospace,monospace" font-size="11">76 ns</text><rect x="330" y="1893" width="273" height="22" fill="#a371f7" rx="3"/><text x="322" y="1908" fill="#c9d1d9" font-family="ui-sans-serif,system-ui,sans-serif" font-size="11" text-anchor="end">humfmt  i64, compact=false + separators, write!</text><text x="868" y="1908" fill="#c9d1d9" font-family="ui-monospace,monospace" font-size="11">91 ns</text><rect x="330" y="1929" width="275" height="22" fill="#a371f7" rx="3"/><text x="322" y="1944" fill="#c9d1d9" font-family="ui-sans-serif,system-ui,sans-serif" font-size="11" text-anchor="end">humfmt  u128 extreme, default, write!</text><text x="868" y="1944" fill="#c9d1d9" font-family="ui-monospace,monospace" font-size="11">92 ns</text><rect x="330" y="1965" width="305" height="22" fill="#a371f7" rx="3"/><text x="322" y="1980" fill="#c9d1d9" font-family="ui-sans-serif,system-ui,sans-serif" font-size="11" text-anchor="end">humfmt  u128 extreme, significant_digits=3, write!</text><text x="868" y="1980" fill="#c9d1d9" font-family="ui-monospace,monospace" font-size="11">102 ns</text><rect x="330" y="2001" width="530" height="22" fill="#a371f7" rx="3"/><text x="322" y="2016" fill="#c9d1d9" font-family="ui-sans-serif,system-ui,sans-serif" font-size="11" text-anchor="end">humfmt  f64, precision=2, write!</text><text x="868" y="2016" fill="#c9d1d9" font-family="ui-monospace,monospace" font-size="11">177 ns</text></svg>