<svg xmlns="http://www.w3.org/2000/svg" width="1000" height="158" viewBox="0 0 1000 158"><rect width="100%" height="100%" fill="#0d1117"/><text x="20" y="28" fill="#c9d1d9" font-family="ui-sans-serif,system-ui,sans-serif" font-size="13" font-weight="600">Numbers — allocating (to_string) — lower is better</text><line x1="330" y1="50" x2="330" y2="122" stroke="#30363d" stroke-width="1"/><line x1="330" y1="122" x2="860" y2="122" stroke="#30363d" stroke-width="1"/><line x1="330" y1="122" x2="330" y2="126" stroke="#30363d" stroke-width="1"/><text x="330" y="138" fill="#8b949e" font-family="ui-monospace,monospace" font-size="10" text-anchor="start">0</text><line x1="463" y1="50" x2="463" y2="122" stroke="#21262d" stroke-width="1" stroke-dasharray="2 3"/><line x1="463" y1="122" x2="463" y2="126" stroke="#30363d" stroke-width="1"/><text x="463" y="138" fill="#8b949e" font-family="ui-monospace,monospace" font-size="10" text-anchor="middle">55 ns</text><line x1="595" y1="50" x2="595" y2="122" stroke="#21262d" stroke-width="1" stroke-dasharray="2 3"/><line x1="595" y1="122" x2="595" y2="126" stroke="#30363d" stroke-width="1"/><text x="595" y="138" fill="#8b949e" font-family="ui-monospace,monospace" font-size="10" text-anchor="middle">110 ns</text><line x1="728" y1="50" x2="728" y2="122" stroke="#21262d" stroke-width="1" stroke-dasharray="2 3"/><line x1="728" y1="122" x2="728" y2="126" stroke="#30363d" stroke-width="1"/><text x="728" y="138" fill="#8b949e" font-family="ui-monospace,monospace" font-size="10" text-anchor="middle">165 ns</text><line x1="860" y1="50" x2="860" y2="122" stroke="#21262d" stroke-width="1" stroke-dasharray="2 3"/><line x1="860" y1="122" x2="860" y2="126" stroke="#30363d" stroke-width="1"/><text x="860" y="138" fill="#8b949e" font-family="ui-monospace,monospace" font-size="10" text-anchor="end">220 ns</text><rect x="330" y="57" width="503" height="22" fill="#a371f7" rx="3"/><text x="322" y="72" fill="#c9d1d9" font-family="ui-sans-serif,system-ui,sans-serif" font-size="11" text-anchor="end">humfmt  i8-u128 + f32/f64, locale-aware</text><text x="868" y="72" fill="#c9d1d9" font-family="ui-monospace,monospace" font-size="11">209 ns</text><rect x="330" y="93" width="530" height="22" fill="#388bfd" rx="3"/><text x="322" y="108" fill="#c9d1d9" font-family="ui-sans-serif,system-ui,sans-serif" font-size="11" text-anchor="end">human_format  f64 only, EN only, returns String</text><text x="868" y="108" fill="#c9d1d9" font-family="ui-monospace,monospace" font-size="11">220 ns</text></svg>