<svg xmlns="http://www.w3.org/2000/svg" width="1000" height="524" viewBox="0 0 1000 524"><rect width="100%" height="100%" fill="#0d1117"/><text x="20" y="28" fill="#c9d1d9" font-family="ui-sans-serif,system-ui,sans-serif" font-size="13" font-weight="600">Duration formatting — allocating — lower is better</text><line x1="330" y1="50" x2="330" y2="194" stroke="#30363d" stroke-width="1"/><line x1="330" y1="194" x2="860" y2="194" stroke="#30363d" stroke-width="1"/><line x1="330" y1="194" x2="330" y2="198" stroke="#30363d" stroke-width="1"/><text x="330" y="210" fill="#8b949e" font-family="ui-monospace,monospace" font-size="10" text-anchor="start">0</text><line x1="463" y1="50" x2="463" y2="194" stroke="#21262d" stroke-width="1" stroke-dasharray="2 3"/><line x1="463" y1="194" x2="463" y2="198" stroke="#30363d" stroke-width="1"/><text x="463" y="210" fill="#8b949e" font-family="ui-monospace,monospace" font-size="10" text-anchor="middle">135 ns</text><line x1="595" y1="50" x2="595" y2="194" stroke="#21262d" stroke-width="1" stroke-dasharray="2 3"/><line x1="595" y1="194" x2="595" y2="198" stroke="#30363d" stroke-width="1"/><text x="595" y="210" fill="#8b949e" font-family="ui-monospace,monospace" font-size="10" text-anchor="middle">270 ns</text><line x1="728" y1="50" x2="728" y2="194" stroke="#21262d" stroke-width="1" stroke-dasharray="2 3"/><line x1="728" y1="194" x2="728" y2="198" stroke="#30363d" stroke-width="1"/><text x="728" y="210" fill="#8b949e" font-family="ui-monospace,monospace" font-size="10" text-anchor="middle">404 ns</text><line x1="860" y1="50" x2="860" y2="194" stroke="#21262d" stroke-width="1" stroke-dasharray="2 3"/><line x1="860" y1="194" x2="860" y2="198" stroke="#30363d" stroke-width="1"/><text x="860" y="210" fill="#8b949e" font-family="ui-monospace,monospace" font-size="10" text-anchor="end">539 ns</text><rect x="330" y="57" width="303" height="22" fill="#388bfd" rx="3"/><text x="322" y="72" fill="#c9d1d9" font-family="ui-sans-serif,system-ui,sans-serif" font-size="11" text-anchor="end">humantime  EN only, all non-zero units</text><text x="868" y="72" fill="#c9d1d9" font-family="ui-monospace,monospace" font-size="11">309 ns</text><rect x="330" y="93" width="354" height="22" fill="#a371f7" rx="3"/><text x="322" y="108" fill="#c9d1d9" font-family="ui-sans-serif,system-ui,sans-serif" font-size="11" text-anchor="end">humfmt  short, 2 units (default)</text><text x="868" y="108" fill="#c9d1d9" font-family="ui-monospace,monospace" font-size="11">360 ns</text><rect x="330" y="129" width="368" height="22" fill="#a371f7" rx="3"/><text x="322" y="144" fill="#c9d1d9" font-family="ui-sans-serif,system-ui,sans-serif" font-size="11" text-anchor="end">humfmt  short, 3 units</text><text x="868" y="144" fill="#c9d1d9" font-family="ui-monospace,monospace" font-size="11">374 ns</text><rect x="330" y="165" width="530" height="22" fill="#a371f7" rx="3"/><text x="322" y="180" fill="#c9d1d9" font-family="ui-sans-serif,system-ui,sans-serif" font-size="11" text-anchor="end">humfmt  long labels, 2 units</text><text x="868" y="180" fill="#c9d1d9" font-family="ui-monospace,monospace" font-size="11">539 ns</text><line x1="20" y1="244" x2="980" y2="244" stroke="#30363d" stroke-width="1" stroke-dasharray="5 4"/><text x="20" y="286" fill="#c9d1d9" font-family="ui-sans-serif,system-ui,sans-serif" font-size="13" font-weight="600">Relative time (ago) — allocating — lower is better</text><line x1="330" y1="308" x2="330" y2="488" stroke="#30363d" stroke-width="1"/><line x1="330" y1="488" x2="860" y2="488" stroke="#30363d" stroke-width="1"/><line x1="330" y1="488" x2="330" y2="492" stroke="#30363d" stroke-width="1"/><text x="330" y="504" fill="#8b949e" font-family="ui-monospace,monospace" font-size="10" text-anchor="start">0</text><line x1="463" y1="308" x2="463" y2="488" stroke="#21262d" stroke-width="1" stroke-dasharray="2 3"/><line x1="463" y1="488" x2="463" y2="492" stroke="#30363d" stroke-width="1"/><text x="463" y="504" fill="#8b949e" font-family="ui-monospace,monospace" font-size="10" text-anchor="middle">217 ns</text><line x1="595" y1="308" x2="595" y2="488" stroke="#21262d" stroke-width="1" stroke-dasharray="2 3"/><line x1="595" y1="488" x2="595" y2="492" stroke="#30363d" stroke-width="1"/><text x="595" y="504" fill="#8b949e" font-family="ui-monospace,monospace" font-size="10" text-anchor="middle">433 ns</text><line x1="728" y1="308" x2="728" y2="488" stroke="#21262d" stroke-width="1" stroke-dasharray="2 3"/><line x1="728" y1="488" x2="728" y2="492" stroke="#30363d" stroke-width="1"/><text x="728" y="504" fill="#8b949e" font-family="ui-monospace,monospace" font-size="10" text-anchor="middle">650 ns</text><line x1="860" y1="308" x2="860" y2="488" stroke="#21262d" stroke-width="1" stroke-dasharray="2 3"/><line x1="860" y1="488" x2="860" y2="492" stroke="#30363d" stroke-width="1"/><text x="860" y="504" fill="#8b949e" font-family="ui-monospace,monospace" font-size="10" text-anchor="end">867 ns</text><rect x="330" y="315" width="197" height="22" fill="#a371f7" rx="3"/><text x="322" y="330" fill="#c9d1d9" font-family="ui-sans-serif,system-ui,sans-serif" font-size="11" text-anchor="end">humfmt  short, 2 units (explicit)</text><text x="868" y="330" fill="#c9d1d9" font-family="ui-monospace,monospace" font-size="11">322 ns</text><rect x="330" y="351" width="198" height="22" fill="#a371f7" rx="3"/><text x="322" y="366" fill="#c9d1d9" font-family="ui-sans-serif,system-ui,sans-serif" font-size="11" text-anchor="end">humfmt  short, 2 units (default)</text><text x="868" y="366" fill="#c9d1d9" font-family="ui-monospace,monospace" font-size="11">324 ns</text><rect x="330" y="387" width="266" height="22" fill="#a371f7" rx="3"/><text x="322" y="402" fill="#c9d1d9" font-family="ui-sans-serif,system-ui,sans-serif" font-size="11" text-anchor="end">humfmt  long, 2 units</text><text x="868" y="402" fill="#c9d1d9" font-family="ui-monospace,monospace" font-size="11">436 ns</text><rect x="330" y="423" width="445" height="22" fill="#388bfd" rx="3"/><text x="322" y="438" fill="#c9d1d9" font-family="ui-sans-serif,system-ui,sans-serif" font-size="11" text-anchor="end">timeago  EN, 2 units, returns String</text><text x="868" y="438" fill="#c9d1d9" font-family="ui-monospace,monospace" font-size="11">728 ns</text><rect x="330" y="459" width="530" height="22" fill="#388bfd" rx="3"/><text x="322" y="474" fill="#c9d1d9" font-family="ui-sans-serif,system-ui,sans-serif" font-size="11" text-anchor="end">timeago  EN, 1 unit (default), returns String</text><text x="868" y="474" fill="#c9d1d9" font-family="ui-monospace,monospace" font-size="11">867 ns</text></svg>